<?xml version="1.0" standalone="no"?>
<!DOCTYPE svg PUBLIC "-//W3C//DTD SVG 1.1//EN" "http://www.w3.org/Graphics/SVG/1.1/DTD/svg11.dtd" >
<svg xmlns="http://www.w3.org/2000/svg" xmlns:xlink="http://www.w3.org/1999/xlink" version="1.1">
<metadata>
Created by FontForge 20170731 at Tue Feb 22 12:40:44 2005
 By Aleksey,,,
2000 Albert-Jan Pool, published by Fontshop International for the FontFont library.
</metadata>
<defs>
<font id="DIN-RegularItalic" horiz-adv-x="496" >
  <font-face 
    font-family="DIN-RegularItalic"
    font-weight="400"
    font-style="italic"
    font-stretch="normal"
    units-per-em="1000"
    panose-1="2 0 5 6 2 0 0 2 0 3"
    ascent="800"
    descent="-200"
    x-height="493"
    cap-height="712"
    bbox="-148 -225 1066 984"
    underline-thickness="49"
    underline-position="-205"
    unicode-range="U+0020-FB02"
  />
<missing-glyph horiz-adv-x="1000" 
 />
    <glyph glyph-name=".notdef" horiz-adv-x="1000" 
 />
    <glyph glyph-name=".null" horiz-adv-x="0" 
 />
    <glyph glyph-name="nonmarkingreturn" horiz-adv-x="236" 
 />
    <glyph glyph-name="space" unicode=" " horiz-adv-x="236" 
 />
    <glyph glyph-name="exclam" unicode="!" horiz-adv-x="301" 
d="M297 712h-81l-91 -515h60zM176 86h-82l-17 -86h83z" />
    <glyph glyph-name="quotedbl" unicode="&#x22;" horiz-adv-x="403" 
d="M414 712h-76l-35 -172h76zM252 712h-75l-35 -172h76z" />
    <glyph glyph-name="numbersign" unicode="#" horiz-adv-x="627" 
d="M629 498h-82l75 216h-73l-75 -216h-152l75 216h-73l-76 -216h-98l-13 -63h91l-53 -146h-93l-12 -62h84l-80 -227h74l79 227h152l-79 -227h72l80 227h97l12 62h-88l53 146h90zM453 435l-53 -146h-152l52 146h153z" />
    <glyph glyph-name="dollar" unicode="$" horiz-adv-x="567" 
d="M560 636q-33 39 -73.5 57.5t-87.5 22.5l17 90h-57l-17 -88q-62 -3 -106.5 -25.5t-72.5 -55t-41 -70.5t-13 -74q0 -67 39 -104t104 -53l8.5 -2t12.5 -3l-52 -272q-50 3 -85.5 23t-64.5 58l-55 -48q39 -48 83 -70.5t107 -26.5l-21 -109h57l20 108q50 2 95 16.5t79.5 42
t55 67t20.5 91.5q0 72 -37.5 113t-116.5 58l-25 5l51 267q45 -3 73 -19.5t51 -43.5zM439 207q0 -31 -13 -56.5t-35.5 -45t-53 -32t-66.5 -15.5l50 263q26 -6 48 -13t37.5 -20t24 -32t8.5 -49zM334 655l-49 -257q-20 4 -38.5 11t-33 18.5t-23.5 28t-9 40.5q0 29 10.5 56
t30.5 49t48.5 36.5t63.5 17.5z" />
    <glyph glyph-name="percent" unicode="%" horiz-adv-x="800" 
d="M388 614q0 30 -10 50t-25.5 32t-35 17.5t-37.5 5.5q-66 0 -103 -36t-49 -99l-18 -99q-3 -15 -3 -35q0 -30 10 -50t25.5 -32t35 -17.5t37.5 -5.5q66 0 102.5 36t48.5 99l19 99q3 15 3 35zM737 263q0 30 -10 50t-25.5 32t-35 17.5t-37.5 5.5q-66 0 -102.5 -36t-48.5 -99
l-19 -99q-3 -15 -3 -35q0 -30 10 -50t25.5 -32t35 -17.5t37.5 -5.5q66 0 103 36t49 99l18 99q3 15 3 35zM682 712h-61l-458 -712h60zM334 610q0 -14 -3 -27l-20 -103q-7 -37 -27.5 -61.5t-61.5 -24.5q-35 0 -48 17t-13 43q0 8 0.5 14t2.5 13l19 103q7 37 28 61.5t62 24.5
q35 0 48 -17t13 -43zM683 259q0 -14 -3 -27l-19 -103q-7 -37 -28 -61.5t-62 -24.5q-35 0 -47.5 17t-12.5 43v14t2 13l20 103q7 37 27.5 61.5t61.5 24.5q35 0 48 -17t13 -43z" />
    <glyph glyph-name="ampersand" unicode="&#x26;" horiz-adv-x="704" 
d="M617 348h-70q-10 -57 -26 -94t-44 -68l-128 215l57 36q54 34 80 70t26 81q0 25 -8 48.5t-24 41.5t-41 29t-59 11q-46 0 -78.5 -15.5t-53.5 -39.5t-31 -54t-10 -60q0 -43 16.5 -75.5t30.5 -55.5q-43 -26 -79 -52t-61.5 -55.5t-39.5 -65.5t-14 -82q0 -41 14 -72.5t39 -53
t58.5 -32.5t72.5 -11q37 0 70 8t60 20.5t48.5 27.5t35.5 28l48 -78h87l-80 129q48 50 70.5 102.5t33.5 116.5zM424 133q-46 -42 -91.5 -58.5t-84.5 -16.5q-52 0 -83.5 31.5t-31.5 80.5q0 33 10.5 59.5t30 49t48 43t63.5 42.5zM442 587q0 -40 -24.5 -64t-59.5 -46
q-1 -1 -9.5 -6.5t-19 -12t-11.5 -6.5q-20 31 -29 53.5t-9 42.5q0 46 26 77t70 31q27 0 46.5 -17t19.5 -52z" />
    <glyph glyph-name="quotesingle" unicode="'" horiz-adv-x="242" 
d="M252 712h-75l-35 -172h76z" />
    <glyph glyph-name="parenleft" unicode="(" horiz-adv-x="284" 
d="M324 753l-40 53q-23 -18 -45.5 -40t-37.5 -44q-17 -26 -24.5 -49t-12.5 -48l-102 -511q-5 -25 -7 -40.5t-2 -29.5q0 -24 11.5 -57t52.5 -81l52 47q-30 35 -37.5 59.5t-7.5 41.5q0 11 2 26t5 30l101 509q5 25 12 41t18 31q10 14 24.5 28t37.5 34z" />
    <glyph glyph-name="parenright" unicode=")" horiz-adv-x="284" 
d="M272 668q0 24 -11 57t-52 81l-53 -47q30 -35 38 -59.5t8 -41.5q0 -11 -2 -26t-5 -30l-102 -509q-5 -25 -12 -41t-18 -31q-10 -14 -24.5 -28t-37.5 -34l40 -53q23 18 45.5 40t37.5 44q17 26 25 49t13 48l102 511q5 25 6.5 40.5t1.5 29.5z" />
    <glyph glyph-name="asterisk" unicode="*" horiz-adv-x="451" 
d="M455 566l-18 51l-121 -45l29 127l-54 11l-23 -128l-95 88l-35 -41l99 -83l-124 -39l18 -51l121 45l-29 -127l54 -11l23 129l95 -89l35 41l-99 83z" />
    <glyph glyph-name="plus" unicode="+" 
d="M458 299h-165l35 177h-65l-36 -177h-167l-12 -64h166l-35 -177h66l35 177h165z" />
    <glyph glyph-name="comma" unicode="," horiz-adv-x="252" 
d="M138 89h-84l-47 -233l101 80z" />
    <glyph glyph-name="hyphen" unicode="-" horiz-adv-x="405" 
d="M345 302h-262l-13 -65h262z" />
    <glyph glyph-name="period" unicode="." horiz-adv-x="257" 
d="M143 95h-90l-19 -95h91z" />
    <glyph glyph-name="slash" unicode="/" horiz-adv-x="341" 
d="M450 786h-71l-443 -860h72z" />
    <glyph glyph-name="zero" unicode="0" 
d="M493 563q0 40 -13 69.5t-35 48.5t-50 28t-58 9q-29 0 -62.5 -9t-64.5 -31.5t-56 -61t-37 -98.5l-63 -322q-5 -25 -5 -47q0 -40 13 -69.5t34.5 -48.5t49.5 -28t58 -9q29 0 62.5 8.5t64.5 31t56 61.5t37 99l64 322q5 25 5 47zM423 561q0 -21 -5 -44l-63 -324
q-8 -39 -23.5 -65.5t-36 -42t-43.5 -22.5t-45 -7q-16 0 -32 5t-28.5 16.5t-20.5 29.5t-8 44q0 11 2 22l4 22l63 324q7 39 23 65.5t36.5 42t43.5 22.5t45 7q16 0 32 -5t28.5 -16.5t20 -29.5t7.5 -44z" />
    <glyph glyph-name="one" unicode="1" 
d="M409 712h-71l-151 -112l-16 -85l152 114l-127 -629h70z" />
    <glyph glyph-name="two" unicode="2" 
d="M496 555q0 79 -44 121t-119 42q-85 0 -142 -47.5t-75 -142.5h71q15 70 55 99t88 29q45 0 70 -25.5t25 -76.5q0 -41 -15.5 -71.5t-47.5 -64.5l-333 -356l-13 -62h380l12 62h-291l289 308q17 18 33 37t29 41.5t20.5 48.5t7.5 58z" />
    <glyph glyph-name="three" unicode="3" 
d="M482 564q0 72 -43 113.5t-115 41.5q-79 0 -138 -43.5t-83 -135.5h72q14 53 52.5 85t87.5 32q48 0 73 -25.5t25 -70.5q0 -33 -10.5 -63t-30 -53.5t-46 -37t-59.5 -13.5h-16l-12 -60h16q57 0 83 -25t26 -74q0 -36 -12 -69t-33.5 -57.5t-51.5 -39t-65 -14.5
q-53 0 -79.5 28.5t-26.5 72.5q0 7 0.5 12t1.5 10h-69q-1 -8 -1 -15v-13q0 -34 10.5 -62.5t32 -49.5t54 -33t77.5 -12q55 0 98 21t73 55t45.5 78t15.5 89q0 100 -76 129q31 12 54 32t38.5 46t23.5 57t8 64z" />
    <glyph glyph-name="four" unicode="4" 
d="M450 179h-85l39 196h-69l-39 -196h-195l346 533h-77l-347 -533l-12 -64h273l-23 -115h68l23 115h84z" />
    <glyph glyph-name="five" unicode="5" 
d="M516 712h-342l-75 -374h62q22 38 55.5 55t75.5 17q49 0 68 -28t19 -70q0 -18 -2.5 -37.5t-6.5 -39.5q-7 -37 -18 -69.5t-29 -57t-45 -39t-66 -14.5q-46 0 -68.5 26t-22.5 66v10t1 11h-68q-1 -8 -1 -16v-10q0 -29 8.5 -56t28 -47.5t49.5 -33t74 -12.5q48 0 84.5 15.5
t63.5 42.5q33 33 51 79.5t29 104.5q4 21 6.5 43t2.5 43q0 30 -8.5 57t-26 47.5t-45 32.5t-65.5 12q-41 0 -70 -10t-56 -36l45 226h280z" />
    <glyph glyph-name="six" unicode="6" 
d="M432 224q0 39 -11 71.5t-31.5 56.5t-50.5 37t-68 13q-17 0 -30 -3t-25 -8l215 321h-76l-231 -347q-21 -31 -35 -56t-22.5 -47.5t-12.5 -44t-4 -45.5q0 -33 9.5 -64.5t30.5 -57t54.5 -41t81.5 -15.5q42 0 79.5 17t65.5 48t44.5 73t16.5 92zM361 223q0 -30 -9 -60
t-26.5 -53.5t-43.5 -38.5t-60 -15q-25 0 -44.5 9.5t-32.5 26t-19.5 38.5t-6.5 47q0 26 8 55.5t25 54t43.5 41t62.5 16.5q25 0 44.5 -9.5t32.5 -26t19.5 -38.5t6.5 -47z" />
    <glyph glyph-name="seven" unicode="7" 
d="M544 712h-382l-33 -169h68l21 107h237l-358 -650h77l358 650z" />
    <glyph glyph-name="eight" unicode="8" 
d="M494 557q0 37 -12.5 67t-34 51t-51.5 32t-65 11q-47 0 -86.5 -17t-68.5 -47t-45 -71t-16 -89q0 -43 17 -71.5t43 -48.5q-70 -30 -104.5 -84t-34.5 -126q0 -44 14.5 -76t39 -53t56 -31t65.5 -10q58 0 101.5 19.5t72 52t43 73.5t14.5 83q0 51 -17.5 84.5t-52.5 57.5
q57 25 89.5 77t32.5 116zM372 224q0 -35 -11 -66t-31 -53.5t-49.5 -35.5t-65.5 -13q-48 0 -78.5 30t-30.5 83q0 35 11.5 65.5t32 53.5t49.5 36t65 13q48 0 78 -30t30 -83zM424 556q0 -28 -9.5 -56.5t-27.5 -51t-44.5 -36.5t-60.5 -14q-47 0 -72.5 27.5t-25.5 72.5
q0 28 9.5 56.5t28 51t45 36.5t60.5 14q47 0 72 -27.5t25 -72.5z" />
    <glyph glyph-name="nine" unicode="9" 
d="M491 540q0 33 -9.5 64.5t-30.5 57t-54.5 41t-81.5 15.5q-42 0 -79.5 -17t-65.5 -48t-44.5 -73t-16.5 -92q0 -39 11 -71.5t31.5 -56.5t50.5 -37t68 -13q17 0 29.5 3t24.5 8l-214 -321h75l231 347q21 31 35 56t23 47.5t13 44t4 45.5zM422 535q0 -26 -8 -55.5t-25 -54
t-43.5 -41t-62.5 -16.5q-25 0 -44.5 9.5t-32.5 26t-19.5 38.5t-6.5 47q0 30 9 60t26.5 53.5t43 38.5t59.5 15q25 0 44.5 -9.5t32.5 -26t20 -38.5t7 -47z" />
    <glyph glyph-name="colon" unicode=":" horiz-adv-x="282" 
d="M227 395h-90l-20 -95h91zM170 95h-90l-19 -95h90z" />
    <glyph glyph-name="semicolon" unicode=";" horiz-adv-x="282" 
d="M167 89h-85l-46 -233l101 80zM228 395h-90l-19 -95h90z" />
    <glyph glyph-name="less" unicode="&#x3c;" 
d="M436 471l-345 -166l-13 -62l281 -171l14 71l-213 126l261 124z" />
    <glyph glyph-name="equal" unicode="=" 
d="M443 219h-397l-13 -65h396zM475 384h-397l-14 -64h398z" />
    <glyph glyph-name="greater" unicode="&#x3e;" 
d="M431 293l-280 171l-15 -71l213 -126l-260 -124l-15 -78l344 166z" />
    <glyph glyph-name="question" unicode="?" horiz-adv-x="474" 
d="M491 571q0 35 -12 62.5t-32.5 46t-47.5 28.5t-57 10q-85 0 -141.5 -46.5t-72.5 -131.5h72q11 54 46 85t85 31q45 0 67 -26.5t22 -62.5q0 -35 -13 -61t-38 -55l-100 -115q-22 -25 -32 -45.5t-16 -49.5l-10 -45h70l10 42q3 12 10.5 28.5t18.5 29.5l101 118q32 36 51 72.5
t19 84.5zM272 86h-82l-17 -86h83z" />
    <glyph glyph-name="at" unicode="@" horiz-adv-x="679" 
d="M667 551q0 64 -33 106q-21 26 -54.5 41t-81.5 15h-140q-49 0 -91 -14t-69 -40q-29 -26 -48 -62.5t-32 -100.5l-66 -335q-2 -12 -4.5 -29t-2.5 -30q0 -32 12 -56.5t41 -52.5l53 46q-18 17 -28 33.5t-10 36.5q0 12 2 25.5t5 27.5l67 336q8 41 21 67.5t38 48.5
q23 20 50.5 30t62.5 10h122q35 0 58 -9.5t39 -29.5q21 -27 21 -69q0 -21 -6 -48l-16 -80q-16 29 -45 47t-73 18q-38 0 -75.5 -15.5t-64.5 -44.5q-29 -32 -44.5 -75.5t-29.5 -109.5q-6 -32 -9 -56.5t-3 -46.5q0 -29 8.5 -54.5t25.5 -45t43 -31t61 -11.5q41 0 73.5 13t62.5 49
l-11 -55h66l98 491q2 11 4.5 29.5t2.5 30.5zM553 328q0 -38 -11 -90q-9 -41 -20.5 -75t-29 -58.5t-43 -38t-61.5 -13.5q-26 0 -43 9t-27 22.5t-13.5 30.5t-3.5 33q0 19 3.5 42t8.5 48q9 41 20.5 75t29 58.5t43 38t61.5 13.5q26 0 43 -9t26.5 -22.5t13 -30.5t3.5 -33z" />
    <glyph glyph-name="A" unicode="A" horiz-adv-x="581" 
d="M521 0l-107 712h-61l-389 -712h78l87 162h296l22 -162h74zM418 223h-257l204 384z" />
    <glyph glyph-name="B" unicode="B" horiz-adv-x="636" 
d="M610 552q0 23 -6.5 51t-25.5 52t-54.5 40.5t-92.5 16.5h-239l-143 -712h281q50 0 92 16.5t73 46.5t48 72t17 93t-21.5 83.5t-61.5 51.5q39 15 65 37.5t41 48.5t21 53t6 50zM487 226q0 -36 -12 -65.5t-33 -51t-50 -33.5t-64 -12h-194l54 267h186q52 0 82.5 -27t30.5 -78z
M536 547q0 -30 -10.5 -57.5t-31 -48.5t-49.5 -33t-66 -12h-178l51 252h170q35 0 57 -9t35 -23.5t17.5 -32.5t4.5 -36z" />
    <glyph glyph-name="C" unicode="C" horiz-adv-x="607" 
d="M592 509q0 45 -13 83.5t-38.5 66.5t-63.5 43.5t-89 15.5q-54 0 -104 -21.5t-85 -56.5q-22 -22 -37 -46.5t-26.5 -57.5t-21.5 -76.5t-21 -103.5q-8 -39 -12.5 -67t-7 -47.5t-3.5 -33t-1 -22.5q0 -46 16 -82t44 -60.5t65 -37t79 -12.5q45 0 86.5 14t76.5 41t61.5 65.5
t42.5 88.5h-74q-11 -28 -28 -54t-41 -46.5t-54 -33t-67 -12.5q-27 0 -51.5 9t-42.5 25.5t-29 41t-11 55.5q0 12 1 26.5t4 34.5t7.5 46t11.5 61q10 53 19 91.5t18.5 66t20.5 47t26 34.5q29 29 62.5 44.5t75.5 15.5q62 0 96.5 -40t34.5 -106h73z" />
    <glyph glyph-name="D" unicode="D" horiz-adv-x="639" 
d="M613 518q0 56 -17.5 93.5t-46 60t-64 31.5t-71.5 9h-222l-143 -712h236q54 0 101.5 16.5t83.5 48.5q24 22 41.5 47.5t31.5 60.5t25.5 81.5t23.5 109.5q6 31 10 54t6.5 41t3.5 31.5t1 27.5zM541 515q0 -13 -1 -26.5t-4 -30.5t-7 -40t-10 -54q-10 -54 -20 -94.5t-21.5 -70
t-24.5 -50t-29 -35.5q-32 -29 -68.5 -40t-74.5 -11h-147l118 586h148q74 0 107.5 -37t33.5 -97z" />
    <glyph glyph-name="E" unicode="E" horiz-adv-x="572" 
d="M611 712h-419l-143 -712h426l12 63h-353l54 265h297l12 63h-297l52 258h346z" />
    <glyph glyph-name="F" unicode="F" horiz-adv-x="550" 
d="M611 712h-419l-143 -712h72l64 317h297l13 63h-296l53 269h346z" />
    <glyph glyph-name="G" unicode="G" horiz-adv-x="619" 
d="M593 508q0 45 -13 83t-38 66.5t-63.5 44.5t-89.5 16q-56 0 -106 -22t-85 -57q-21 -21 -36 -44.5t-26 -55t-21 -76t-22 -107.5q-7 -35 -11.5 -61.5t-7.5 -46t-4 -34.5t-1 -28q0 -45 16.5 -81t44.5 -60.5t65 -37.5t79 -13q60 0 107.5 22.5t79.5 54.5q35 35 56 80t33 108
l21 113h-239l-11 -62h167l-12 -59q-10 -53 -32 -90t-49.5 -60t-58 -33.5t-57.5 -10.5q-24 0 -48.5 8t-44 24t-32 41t-12.5 60q0 12 1 26t3.5 33.5t7 45t11.5 61.5q10 55 19.5 94t19 66t20.5 45.5t26 33.5q60 60 139 60q60 0 95.5 -39.5t35.5 -107.5h73z" />
    <glyph glyph-name="H" unicode="H" horiz-adv-x="661" 
d="M657 712h-72l-64 -321h-320l63 321h-72l-143 -712h72l67 328h320l-66 -328h72z" />
    <glyph glyph-name="I" unicode="I" horiz-adv-x="268" 
d="M264 712h-72l-143 -712h72z" />
    <glyph glyph-name="J" unicode="J" horiz-adv-x="476" 
d="M482 712h-73l-97 -487q-17 -85 -61.5 -126.5t-105.5 -41.5q-37 0 -60.5 12.5t-43.5 35.5l-53 -45q24 -30 60.5 -48t90.5 -18q93 0 157 55t86 164z" />
    <glyph glyph-name="K" unicode="K" horiz-adv-x="621" 
d="M667 712h-91l-393 -405l81 405h-72l-143 -712h72l40 200l181 183l142 -383h79l-164 433z" />
    <glyph glyph-name="L" unicode="L" horiz-adv-x="546" 
d="M482 63h-348l130 649h-72l-143 -712h421z" />
    <glyph glyph-name="M" unicode="M" horiz-adv-x="775" 
d="M772 712h-71l-320 -495l-119 495h-70l-143 -712h73l110 548l104 -420h62l268 414l-110 -542h73z" />
    <glyph glyph-name="N" unicode="N" horiz-adv-x="696" 
d="M692 712h-73l-115 -577l-245 577h-67l-143 -712h72l116 577l245 -577h67z" />
    <glyph glyph-name="O" unicode="O" horiz-adv-x="617" 
d="M590 526q0 43 -15 78.5t-41.5 60.5t-62.5 39t-79 14q-55 0 -105.5 -21t-87.5 -58q-22 -22 -37 -46.5t-26.5 -57t-21.5 -76t-21 -103.5q-7 -37 -11.5 -63.5t-7.5 -46.5t-4 -34t-1 -26q0 -43 14.5 -78.5t41 -60.5t62.5 -39t79 -14q55 0 105.5 21t87.5 58q22 22 37 46.5
t26.5 57t21.5 76t21 103.5q7 37 11.5 63.5t7.5 46.5t4.5 34t1.5 26zM516 522q0 -12 -1 -26t-4 -33.5t-7.5 -45t-11.5 -61.5q-11 -56 -20 -95t-18.5 -66t-20 -45t-24.5 -32q-29 -29 -64 -45t-77 -16q-24 0 -46.5 8.5t-40 25t-28.5 41.5t-11 58q0 12 1 26t4 33.5t7.5 45
t11.5 61.5q10 56 19.5 95t19 66t20 45t24.5 32q29 29 64 45t77 16q24 0 46.5 -8.5t40 -25t28.5 -41.5t11 -58z" />
    <glyph glyph-name="P" unicode="P" horiz-adv-x="598" 
d="M615 540q0 33 -9.5 64t-31.5 55t-56.5 38.5t-83.5 14.5h-242l-143 -712h72l60 298h182q60 0 106.5 19t79 51.5t49.5 76.5t17 95zM542 537q0 -38 -13 -70.5t-36 -56t-55.5 -36.5t-71.5 -13h-172l57 287h173q33 0 55.5 -9t36.5 -24.5t20 -35.5t6 -42z" />
    <glyph glyph-name="Q" unicode="Q" horiz-adv-x="617" 
d="M590 526q0 43 -15 78.5t-41.5 60.5t-62.5 39t-79 14q-55 0 -105.5 -21t-87.5 -58q-22 -22 -37 -46.5t-26.5 -57t-21.5 -76t-21 -103.5q-7 -37 -11.5 -63.5t-7.5 -46.5t-4 -34t-1 -26q0 -43 14.5 -78.5t41 -60.5t62.5 -39t79 -14q42 0 81 12t71 34l61 -79l49 43l-60 78
q19 21 32.5 45t24 56t20 74t20.5 99q7 37 11.5 63.5t7.5 46.5t4.5 34t1.5 26zM516 522q0 -12 -1 -26t-4 -33.5t-7.5 -45t-11.5 -61.5q-9 -47 -16.5 -81.5t-15.5 -59.5t-16.5 -43t-18.5 -32l-69 89l-49 -43l71 -92q-49 -37 -110 -37q-24 0 -46.5 8.5t-40 25t-28.5 41.5
t-11 58q0 12 1 26t4 33.5t7.5 45t11.5 61.5q10 56 19.5 95t19 66t20 45t24.5 32q29 29 64 45t77 16q24 0 46.5 -8.5t40 -25t28.5 -41.5t11 -58z" />
    <glyph glyph-name="R" unicode="R" horiz-adv-x="626" 
d="M614 548q0 31 -8.5 60.5t-29 52.5t-54.5 37t-85 14h-245l-143 -712h72l65 320h166l98 -320h80l-104 325q45 9 80 30t59 51t36.5 66.5t12.5 75.5zM541 544q0 -30 -10.5 -59t-31 -52t-51.5 -37t-72 -14h-178l54 266h176q57 0 85 -28t28 -76z" />
    <glyph glyph-name="S" unicode="S" horiz-adv-x="559" 
d="M552 636q-38 45 -85.5 63.5t-102.5 18.5q-68 0 -116.5 -21t-79 -54t-45 -73t-14.5 -77q0 -39 14.5 -66.5t37 -46.5t49.5 -30t53 -17l67 -16q21 -5 39.5 -12.5t32 -20t21.5 -31t8 -46.5q0 -33 -15 -60.5t-40.5 -47t-59.5 -30.5t-73 -11q-59 0 -99.5 20.5t-72.5 61.5
l-55 -48q43 -52 94 -75t126 -23q55 0 103.5 14t85 41.5t58 67.5t21.5 93q0 75 -36.5 114.5t-117.5 58.5l-67 15q-45 11 -73.5 33.5t-28.5 64.5q0 30 12 59t34.5 51.5t55.5 36t74 13.5q27 0 48 -4.5t38 -13t30.5 -20t26.5 -26.5z" />
    <glyph glyph-name="T" unicode="T" horiz-adv-x="520" 
d="M585 712h-463l-13 -64h196l-130 -648h73l130 648h194z" />
    <glyph glyph-name="U" unicode="U" horiz-adv-x="649" 
d="M654 712h-73l-92 -466q-9 -48 -29.5 -83.5t-47.5 -58.5t-59 -34.5t-66 -11.5q-36 0 -61 11.5t-41 30.5t-23 42.5t-7 47.5q0 13 1.5 28t3.5 23l94 471h-73l-92 -464q-2 -12 -4.5 -28.5t-2.5 -32.5q0 -51 17.5 -87.5t46 -60t63.5 -34.5t71 -11q52 0 98 15.5t82.5 46
t61.5 75t37 103.5z" />
    <glyph glyph-name="V" unicode="V" horiz-adv-x="519" 
d="M604 712h-79l-288 -582l-64 582h-73l83 -712h60z" />
    <glyph glyph-name="W" unicode="W" horiz-adv-x="815" 
d="M890 712h-78l-243 -577l-37 577h-65l-264 -577l-20 577h-75l33 -712h67l267 573l38 -573h68z" />
    <glyph glyph-name="X" unicode="X" horiz-adv-x="526" 
d="M587 712h-86l-205 -284l-101 284h-81l130 -341l-279 -371h85l223 302l112 -302h81l-141 361z" />
    <glyph glyph-name="Y" unicode="Y" horiz-adv-x="490" 
d="M575 712h-81l-224 -344l-94 344h-76l121 -416l-60 -296h73l59 291z" />
    <glyph glyph-name="Z" unicode="Z" horiz-adv-x="532" 
d="M565 712h-410l-12 -64h324l-447 -581l-14 -67h423l13 64h-341l452 588z" />
    <glyph glyph-name="bracketleft" unicode="[" horiz-adv-x="300" 
d="M362 786h-167l-171 -860h174l12 62h-104l147 736h96z" />
    <glyph glyph-name="backslash" unicode="\" horiz-adv-x="335" 
d="M272 -74l-99 856h-66l99 -856h66z" />
    <glyph glyph-name="bracketright" unicode="]" horiz-adv-x="300" 
d="M320 786h-175l-12 -59h108l-148 -742h-99l-12 -59h167z" />
    <glyph glyph-name="asciicircum" unicode="^" horiz-adv-x="514" 
d="M481 413l-96 305h-67l-217 -305h75l165 232l72 -232h68z" />
    <glyph glyph-name="underscore" unicode="_" 
d="M425 -113h-496l-11 -49h497z" />
    <glyph glyph-name="grave" unicode="`" horiz-adv-x="475" 
d="M350 589l-52 151h-80l72 -151h60z" />
    <glyph glyph-name="a" unicode="a" horiz-adv-x="501" 
d="M443 371q0 40 -16 65t-40.5 39t-53.5 19t-55 5q-63 0 -104 -17.5t-74 -53.5l41 -48q27 30 57 44.5t76 14.5t72.5 -18.5t26.5 -54.5q0 -9 -1 -17.5t-3 -15.5l-11 -52h-144q-42 0 -78.5 -11.5t-66.5 -40.5q-24 -23 -34 -53.5t-10 -61.5q0 -33 12 -56t32.5 -37t47.5 -20.5
t56 -6.5q47 0 80 13.5t61 41.5l-11 -49h69l66 332q2 9 3.5 20t1.5 19zM348 229l-11 -57q-9 -51 -40 -80q-39 -39 -105 -39q-52 0 -75 16.5t-23 48.5q0 54 35 82.5t92 28.5h127z" />
    <glyph glyph-name="b" unicode="b" horiz-adv-x="519" 
d="M470 343q0 77 -36 116.5t-105 39.5q-56 0 -87.5 -20.5t-47.5 -41.5l55 275h-70l-142 -712h69l13 63q19 -40 53 -54.5t71 -14.5q35 0 69 11.5t62 39.5q35 35 53.5 85.5t31.5 116.5q6 31 8.5 56.5t2.5 39.5zM399 334q0 -19 -3 -41.5t-8 -45.5q-7 -38 -18 -73t-28.5 -61
t-44 -41.5t-63.5 -15.5q-26 0 -43 8t-27.5 22.5t-14.5 33t-4 39.5q0 19 3 42t8 46q7 38 18 72.5t29 60.5t44 41.5t64 15.5q26 0 43 -8t27 -22.5t14 -33t4 -39.5z" />
    <glyph glyph-name="c" unicode="c" horiz-adv-x="466" 
d="M450 426q-24 34 -57 53.5t-85 19.5q-96 0 -162 -64t-89 -188q-4 -20 -5.5 -40.5t-1.5 -35.5q0 -37 10.5 -69.5t32.5 -56.5t54 -37.5t76 -13.5q45 0 87 17t77 52l-41 50q-29 -30 -56.5 -43.5t-62.5 -13.5q-21 0 -40 6.5t-34 21t-24 36.5t-9 53q0 20 2 37t6 37q7 37 22 75
t42 67q25 26 52.5 37t56.5 11q33 0 55 -13t42 -42z" />
    <glyph glyph-name="d" unicode="d" horiz-adv-x="519" 
d="M527 712h-70l-57 -281q-20 40 -54 54t-68 14q-38 0 -70.5 -11.5t-61.5 -40.5q-34 -34 -53 -84.5t-32 -115.5q-11 -53 -11 -98q0 -32 7 -60t23.5 -49t43.5 -33.5t67 -12.5q35 0 69 12t68 53l-12 -59h69zM375 336q0 -20 -3 -43t-8 -46q-7 -38 -18 -73t-29 -61t-44.5 -41.5
t-63.5 -15.5q-26 0 -43 8.5t-27 22.5t-14 32.5t-4 38.5t3 43t8 46q7 38 18 72.5t28.5 60.5t43.5 41.5t64 15.5q26 0 43 -8t27.5 -22t14.5 -32.5t4 -38.5z" />
    <glyph glyph-name="e" unicode="e" horiz-adv-x="506" 
d="M453 330q0 35 -10 66t-30.5 54t-50.5 36t-69 13q-66 0 -112 -31.5t-75 -80.5t-42.5 -108.5t-13.5 -114.5q0 -43 12.5 -75t35 -53t53.5 -31.5t67 -10.5q110 0 186 72l-42 47q-32 -29 -63 -43.5t-75 -14.5q-56 0 -81 31.5t-25 80.5q0 17 1.5 31.5t4.5 30.5h317q6 29 9 55.5
t3 45.5zM385 330q0 -15 -1 -26.5t-3 -23.5h-248q22 83 62.5 121.5t94.5 38.5q38 0 66.5 -26.5t28.5 -83.5z" />
    <glyph glyph-name="f" unicode="f" horiz-adv-x="299" 
d="M364 714h-53q-22 0 -44 -5.5t-41.5 -20t-35 -39t-22.5 -61.5l-20 -99h-59l-10 -53h59l-87 -436h70l87 436h102l11 53h-102l19 95q8 38 28.5 54t49.5 16h36z" />
    <glyph glyph-name="g" unicode="g" horiz-adv-x="517" 
d="M481 493h-69l-12 -63q-10 21 -24 34t-30.5 21t-34 11t-35.5 3q-35 0 -69 -11t-63 -40q-33 -33 -52 -82.5t-31 -114.5q-6 -32 -8.5 -55.5t-2.5 -41.5q0 -73 37.5 -112.5t103.5 -39.5q49 0 81 17t55 46l-16 -76q-9 -42 -25.5 -71.5t-38 -47.5t-46.5 -26.5t-51 -8.5
q-38 0 -61 15t-40 35l-50 -44q28 -33 64 -49.5t87 -16.5q31 0 66 8.5t67 32t58 65.5t39 108zM374 337q0 -19 -3 -41t-8 -45q-7 -37 -18.5 -70.5t-29.5 -59.5t-43.5 -41.5t-61.5 -15.5q-26 0 -43 7.5t-27.5 21t-14.5 32t-4 39.5q0 19 3 41t8 45q7 37 18 71t29 59.5t44 41
t62 15.5q89 0 89 -100z" />
    <glyph glyph-name="h" unicode="h" horiz-adv-x="535" 
d="M474 360q0 34 -10.5 60t-29 43.5t-43.5 26.5t-53 9q-49 0 -83.5 -15.5t-59.5 -42.5l54 271h-70l-142 -712h70l60 302q9 45 28 71.5t41 40.5t43 18.5t34 4.5q38 0 63.5 -21t25.5 -66q0 -10 -1.5 -22t-3.5 -24l-61 -304h70l63 311q2 12 3.5 23.5t1.5 25.5z" />
    <glyph glyph-name="i" unicode="i" horiz-adv-x="241" 
d="M205 493h-70l-98 -493h70zM251 706h-80l-14 -73h79z" />
    <glyph glyph-name="j" unicode="j" horiz-adv-x="241" 
d="M205 493h-70l-116 -578q-8 -39 -26.5 -57t-53.5 -18h-34l-12 -60h51q119 0 145 128zM251 706h-80l-14 -73h79z" />
    <glyph glyph-name="k" unicode="k" horiz-adv-x="513" 
d="M501 492h-90l-256 -251l94 471h-70l-142 -712h70l29 147l115 109l106 -256h81l-133 301z" />
    <glyph glyph-name="l" unicode="l" horiz-adv-x="285" 
d="M247 712h-70l-116 -578q-4 -17 -4 -40q0 -27 9.5 -45.5t24.5 -29t32.5 -15t34.5 -4.5h52l12 60h-41q-32 0 -43 11t-11 30q0 9 1 15.5t3 17.5z" />
    <glyph glyph-name="m" unicode="m" horiz-adv-x="834" 
d="M773 360q0 33 -10.5 59t-29.5 43.5t-44 27t-54 9.5q-63 0 -102.5 -22t-70.5 -60q-18 41 -49.5 61.5t-73.5 20.5q-49 0 -85 -16t-61 -45l11 55h-69l-98 -493h70l60 302q9 45 28 71.5t41 40.5t43 18.5t34 4.5q38 0 63.5 -21t25.5 -66q0 -10 -1.5 -22t-3.5 -24l-61 -304h70
l61 302q9 45 28 71.5t40.5 40.5t42.5 18.5t34 4.5q38 0 64 -21t26 -66q0 -10 -2 -22l-4 -24l-61 -304h71l62 311q2 11 3.5 22.5t1.5 26.5z" />
    <glyph glyph-name="n" unicode="n" horiz-adv-x="535" 
d="M474 360q0 34 -10.5 60t-29 43.5t-43 26.5t-52.5 9q-49 0 -85 -16t-61 -45l11 55h-69l-98 -493h70l60 302q9 45 28 71.5t41 40.5t43 18.5t34 4.5q38 0 63.5 -21t25.5 -66q0 -10 -1.5 -22t-3.5 -24l-61 -304h70l63 311q2 12 3.5 23.5t1.5 25.5z" />
    <glyph glyph-name="o" unicode="o" horiz-adv-x="502" 
d="M452 336q0 51 -17 83t-41.5 49.5t-52 24t-48.5 6.5q-38 0 -74 -12.5t-67 -40.5q-30 -27 -53.5 -72.5t-39.5 -126.5q-3 -17 -6 -41.5t-3 -47.5q0 -51 17 -83t41.5 -50t52 -24.5t48.5 -6.5q38 0 74 13t67 41q30 27 53.5 72.5t39.5 126.5q3 17 6 41.5t3 47.5zM383 333
q0 -15 -3 -37t-8 -49q-12 -61 -27.5 -95t-38.5 -57q-17 -17 -41.5 -28t-50.5 -11q-18 0 -35 5.5t-30.5 18t-21.5 32t-8 48.5q0 15 3 37.5t8 49.5q12 61 27.5 95t38.5 57q17 17 41.5 27.5t50.5 10.5q18 0 35 -5.5t30.5 -18t21.5 -32.5t8 -48z" />
    <glyph glyph-name="p" unicode="p" horiz-adv-x="519" 
d="M470 345q0 31 -7 59t-23.5 49t-43.5 33.5t-67 12.5q-35 0 -69 -12t-68 -52l12 58h-69l-142 -712h70l57 281q10 -20 24 -33.5t30 -21t33.5 -10.5t34.5 -3q38 0 70.5 11.5t61.5 40.5q34 34 53 85t32 116q6 31 8.5 54t2.5 44zM399 336q0 -20 -3 -43t-8 -46q-7 -38 -18 -73
t-28.5 -61t-44 -41.5t-63.5 -15.5q-26 0 -43 8.5t-27.5 22.5t-14.5 32.5t-4 38.5t3 43t8 46q7 38 18 72.5t29 60.5t44 41.5t64 15.5q26 0 43 -8t27 -22t14 -32.5t4 -38.5z" />
    <glyph glyph-name="q" unicode="q" horiz-adv-x="519" 
d="M483 493h-70l-13 -63q-19 40 -52.5 54.5t-70.5 14.5q-35 0 -69.5 -11t-62.5 -39q-35 -35 -53.5 -85.5t-31.5 -116.5q-6 -31 -8.5 -57t-2.5 -40q0 -77 36 -116.5t105 -39.5q28 0 49.5 6t38 15t28 20t19.5 22l-55 -276h71zM374 334q0 -19 -3 -41.5t-8 -45.5q-7 -38 -18 -73
t-29 -61t-44.5 -41.5t-63.5 -15.5q-26 0 -43 8t-27 22.5t-14 33t-4 39.5q0 19 3 42t8 46q7 38 18 72.5t28.5 60.5t43.5 41.5t64 15.5q26 0 43 -8t27.5 -22.5t14.5 -33t4 -39.5z" />
    <glyph glyph-name="r" unicode="r" horiz-adv-x="399" 
d="M437 453q-20 23 -46 34.5t-61 11.5q-45 0 -80 -17.5t-58 -48.5l12 60h-69l-98 -493h70l60 302q6 28 19 53t32 43t42.5 28.5t49.5 10.5q27 0 43.5 -11t26.5 -24z" />
    <glyph glyph-name="s" unicode="s" horiz-adv-x="471" 
d="M434 444q-59 55 -156 55q-53 0 -91.5 -14.5t-64.5 -40.5q-23 -23 -34.5 -53.5t-11.5 -58.5q0 -15 4.5 -31.5t18 -31.5t37.5 -26.5t63 -17.5l67 -10q32 -5 50.5 -17t18.5 -45q0 -17 -8.5 -34.5t-26 -32t-44.5 -23.5t-63 -9q-49 0 -80.5 14t-55.5 42l-52 -45q32 -35 76 -53
t106 -18q50 0 95 13t74 41q27 26 38 53.5t11 53.5q0 55 -27 83t-93 38l-66 9q-36 5 -54.5 18t-18.5 38q0 18 7.5 36t23 32t38.5 23t54 9q38 0 64.5 -9.5t50.5 -30.5z" />
    <glyph glyph-name="t" unicode="t" horiz-adv-x="319" 
d="M314 489h-97l31 154h-70l-31 -154h-62l-10 -53h61l-60 -302q-2 -9 -3 -19t-1 -21q0 -27 9.5 -45.5t24.5 -29t33 -15t35 -4.5h50l13 60h-40q-32 0 -43.5 11t-11.5 31q0 8 1 14.5t3 17.5l61 302h96z" />
    <glyph glyph-name="u" unicode="u" horiz-adv-x="535" 
d="M498 493h-71l-60 -302q-9 -45 -28 -71.5t-41 -40.5t-42.5 -18.5t-33.5 -4.5q-38 0 -64 21t-26 66q0 10 1.5 22t3.5 24l61 304h-70l-62 -311q-2 -12 -4 -23.5t-2 -25.5q0 -34 10.5 -60t29 -43.5t43.5 -26.5t53 -9q49 0 84.5 16t60.5 45l-10 -55h69z" />
    <glyph glyph-name="v" unicode="v" horiz-adv-x="425" 
d="M464 493h-78l-205 -397l-50 397h-71l73 -493h63z" />
    <glyph glyph-name="w" unicode="w" horiz-adv-x="688" 
d="M724 493h-74l-183 -394l-47 394h-57l-200 -394l-31 394h-71l51 -493h64l197 382l48 -382h64z" />
    <glyph glyph-name="x" unicode="x" horiz-adv-x="458" 
d="M467 493h-86l-141 -185l-78 185h-81l108 -237l-206 -256h86l152 196l81 -196h82l-114 249z" />
    <glyph glyph-name="y" unicode="y" horiz-adv-x="424" 
d="M462 493h-77l-204 -397l-51 397h-70l71 -482l-49 -94q-10 -18 -18.5 -30.5t-18 -20t-22 -11t-30.5 -3.5h-21l-13 -62h31q35 0 59 8t43 25q10 9 19.5 22.5t22.5 36.5z" />
    <glyph glyph-name="z" unicode="z" horiz-adv-x="440" 
d="M439 493h-333l-12 -62h247l-329 -372l-12 -59h347l12 62h-262l330 372z" />
    <glyph glyph-name="braceleft" unicode="{" horiz-adv-x="338" 
d="M397 786h-43q-34 0 -57 -6.5t-38 -19.5q-21 -18 -29.5 -41.5t-16.5 -61.5l-38 -189q-5 -21 -11 -36t-17 -24q-21 -19 -48 -19h-24l-13 -62h20q29 0 39 -14.5t12 -29.5q1 -9 1 -17t-2 -18l-38 -188q-2 -9 -4 -21t-2 -23q0 -16 4.5 -32t16 -29t32 -21t53.5 -8h40l12 62h-33
q-29 0 -41 8t-12 31q0 10 1.5 19t3.5 20l37 185q2 8 2.5 18t0.5 15q0 20 -8.5 38.5t-34.5 32.5q32 10 52 32t29 69l39 194q4 21 8.5 35t12.5 22.5t21.5 12.5t34.5 4h25z" />
    <glyph glyph-name="bar" unicode="|" horiz-adv-x="310" 
d="M298 786h-70l-171 -860h69z" />
    <glyph glyph-name="braceright" unicode="}" horiz-adv-x="338" 
d="M321 385h-21q-29 0 -39 14.5t-11 29.5q-1 9 -1 17t2 18l38 188q2 9 3.5 21t1.5 23q0 16 -4 32t-15.5 29t-32 21t-53.5 8h-40l-12 -62h33q29 0 41 -8t12 -31q0 -10 -1.5 -19t-3.5 -20l-37 -185q-2 -8 -2.5 -18t-0.5 -15q0 -20 8.5 -38.5t34.5 -32.5q-32 -10 -52 -32
t-29 -69l-39 -194q-4 -21 -8.5 -35t-12.5 -22.5t-21.5 -12.5t-34.5 -4h-26l-12 -62h43q34 0 57 6.5t38 19.5q21 18 29.5 41.5t16.5 61.5l37 189q9 44 28 60q21 19 49 19h24z" />
    <glyph glyph-name="asciitilde" unicode="~" horiz-adv-x="513" 
d="M476 275l-36 47q-34 -28 -53 -36t-38 -8q-16 0 -31 5t-39 18q-17 9 -30 15t-24 10t-22 5.5t-24 1.5q-12 0 -25 -2t-28.5 -9t-35 -20t-43.5 -34l37 -47q34 28 52.5 36t37.5 8q16 0 31 -4.5t39 -17.5q17 -9 30 -15t24.5 -10t22.5 -5.5t24 -1.5q12 0 24.5 2t28.5 8.5
t35 19.5t43 34z" />
    <glyph glyph-name="nonbreakingspace" unicode="&#xa0;" horiz-adv-x="236" 
 />
    <glyph glyph-name="exclamdown" unicode="&#xa1;" horiz-adv-x="301" 
d="M176 296h-60l-113 -515h82zM224 493h-83l-17 -86h83z" />
    <glyph glyph-name="cent" unicode="&#xa2;" horiz-adv-x="476" 
d="M481 541q-21 31 -50.5 51t-72.5 25l19 95h-57l-18 -96q-59 -6 -101.5 -37.5t-71 -77t-42 -100t-13.5 -106.5q0 -66 33.5 -116t99.5 -62l-23 -117h57l22 114q44 3 82.5 19.5t73.5 51.5l-41 48q-26 -27 -50.5 -40.5t-55.5 -15.5l71 378q29 -2 49 -16t37 -40zM293 552
l-70 -372q-30 6 -52.5 30.5t-23.5 72.5q-1 49 14.5 101.5t44.5 91.5q20 28 41 49.5t46 26.5z" />
    <glyph glyph-name="sterling" unicode="&#xa3;" horiz-adv-x="522" 
d="M549 653q-25 30 -59.5 47.5t-84.5 17.5q-107 0 -167.5 -58.5t-81.5 -161.5l-23 -115h-61l-9 -51h60l-67 -332h371l13 64h-298l53 268h140l11 51h-141l21 107q15 77 57 120.5t113 43.5q31 0 55.5 -10.5t44.5 -36.5z" />
    <glyph glyph-name="currency" unicode="&#xa4;" horiz-adv-x="643" 
d="M625 509q0 45 -13 83.5t-38.5 66.5t-63.5 43.5t-89 15.5q-54 0 -104 -21.5t-85 -56.5t-53.5 -78.5t-32.5 -106.5h-64l-9 -47h63l-18 -98h-64l-8 -47h64q-5 -26 -6.5 -44t-1.5 -33q0 -46 16 -82t43.5 -60.5t64 -37t77.5 -12.5q57 0 101.5 18t78 47.5t56 67t34.5 76.5h-74
q-26 -69 -78 -107.5t-112 -38.5q-27 0 -51.5 9t-42.5 25.5t-29 41t-11 55.5q0 34 7 75h208l9 47h-210l19 98h210l9 47h-209q13 55 27.5 86.5t36.5 53.5q32 32 66.5 46t72.5 14q62 0 96.5 -40t34.5 -106h73z" />
    <glyph glyph-name="yen" unicode="&#xa5;" horiz-adv-x="490" 
d="M575 712h-81l-224 -344l-94 344h-76l91 -315h-96l-10 -50h121l15 -51l-11 -54h-145l-10 -51h145l-38 -191h73l38 191h146l10 51h-146l10 50l37 55h119l10 50h-95z" />
    <glyph glyph-name="brokenbar" unicode="&#xa6;" horiz-adv-x="319" 
d="M298 786h-70l-70 -350h70zM196 276h-70l-69 -350h69z" />
    <glyph glyph-name="section" unicode="&#xa7;" horiz-adv-x="528" 
d="M497 584q0 24 -9 47.5t-27.5 43t-47 31.5t-68.5 12q-39 0 -74 -12.5t-62 -35.5t-43 -56.5t-16 -75.5q0 -38 16.5 -67.5t48.5 -47.5q-35 -15 -60.5 -38t-42 -50.5t-24.5 -59t-8 -64.5q0 -32 9 -56t23.5 -41t31.5 -27.5t34 -16.5l67 -22q32 -11 49 -33.5t17 -52.5
t-10.5 -53.5t-27.5 -39t-40 -23.5t-48 -8q-48 0 -72 25t-19 70h-69q-1 -5 -1 -11v-10q0 -66 43 -101.5t109 -35.5q47 0 85 14.5t65 40t41.5 61t14.5 77.5q0 44 -19.5 73t-48.5 43q36 16 61.5 38.5t42 50.5t24 59t7.5 64q0 32 -9 56t-23.5 41t-32 27.5t-33.5 16.5l-67 22
q-29 10 -47 28.5t-18 52.5q0 52 34.5 84t88.5 32q39 0 64.5 -23.5t21.5 -67.5h68q1 5 1 19zM380 291q0 -19 -4 -38q-6 -31 -18 -53.5t-32 -41.5q-38 -35 -87 -35q-14 0 -30 4.5t-29.5 15.5t-22 29t-8.5 44q0 11 1 18.5t3 18.5q6 31 18 54t32 42q37 34 87 34q17 0 33.5 -5.5
t29 -16.5t20 -28.5t7.5 -41.5z" />
    <glyph glyph-name="dieresis" unicode="&#xa8;" horiz-adv-x="475" 
d="M461 685h-70l-18 -88h71zM260 685h-70l-17 -88h69z" />
    <glyph glyph-name="copyright" unicode="&#xa9;" horiz-adv-x="835" 
d="M781 356q0 71 -27 134t-73.5 109.5t-109.5 73.5t-134 27t-134 -27t-109.5 -73.5t-73.5 -109.5t-27 -134t27 -134t73.5 -109.5t109.5 -73.5t134 -27t134 27t109.5 73.5t73.5 109.5t27 134zM725 356q0 -60 -22.5 -113t-61.5 -93t-91.5 -63t-112.5 -23t-112 23t-91 63
t-61.5 93t-22.5 113t22.5 113t61.5 93t91 63t112 23t112.5 -23t91.5 -63t61.5 -93t22.5 -113zM566 213l-35 35q-24 -21 -43.5 -29t-45.5 -8q-32 0 -54.5 11.5t-36 31t-19.5 46t-6 56.5t6 56.5t19.5 46t36 31t54.5 11.5q26 0 45.5 -8t43.5 -29l35 35q-29 26 -56.5 38.5
t-67.5 12.5q-41 0 -72.5 -14.5t-53 -40.5t-32.5 -61.5t-11 -77.5t11 -77t32.5 -61t53 -40.5t72.5 -14.5q40 0 68.5 13t55.5 37z" />
    <glyph glyph-name="ordfeminine" unicode="&#xaa;" horiz-adv-x="427" 
d="M419 613q0 32 -12.5 52t-32 31.5t-42.5 15.5t-44 4q-50 0 -82 -13t-61 -42l34 -40q21 23 44.5 33.5t61.5 10.5q37 0 57 -14t20 -41q0 -5 -1 -10.5l-3 -16.5l-8 -41h-114q-34 0 -62.5 -9t-51.5 -32q-20 -19 -28 -43t-8 -48q0 -27 9.5 -45.5t26 -30t38 -16.5t44.5 -5
q74 0 111 43l-7 -38h55l53 264q2 8 2.5 16.5t0.5 14.5zM342 499l-9 -45q-7 -38 -30 -61q-31 -31 -83 -31q-77 0 -77 50q0 40 27 63.5t72 23.5h100z" />
    <glyph glyph-name="guillemotleft" unicode="&#xab;" horiz-adv-x="528" 
d="M285 478l-243 -210l161 -211l16 84l-91 121l138 121zM501 478l-243 -210l161 -211l17 84l-93 121l139 121z" />
    <glyph glyph-name="logicalnot" unicode="&#xac;" 
d="M460 308h-399l-13 -65h335l-28 -139h64z" />
    <glyph glyph-name="registered" unicode="&#xae;" horiz-adv-x="835" 
d="M781 356q0 71 -27 134t-73.5 109.5t-109.5 73.5t-134 27t-134 -27t-109.5 -73.5t-73.5 -109.5t-27 -134t27 -134t73.5 -109.5t109.5 -73.5t134 -27t134 27t109.5 73.5t73.5 109.5t27 134zM726 356q0 -60 -22.5 -113.5t-62 -93.5t-92 -63t-112.5 -23t-112.5 23t-91.5 63
t-61.5 93.5t-22.5 113.5t22.5 113.5t61.5 93.5t91.5 63t112.5 23t112.5 -23t92 -63t62 -93.5t22.5 -113.5zM582 168l-90 160q35 11 57.5 36.5t22.5 67.5q0 24 -9.5 44.5t-25.5 35.5t-37.5 24t-46.5 9h-129v-377h54v154h56l86 -154h62zM518 432q0 -28 -20 -46.5t-51 -18.5
h-69v131h69q31 0 51 -19t20 -47z" />
    <glyph glyph-name="macron" unicode="&#xaf;" horiz-adv-x="475" 
d="M466 666h-288l-10 -54h286z" />
    <glyph glyph-name="macron" unicode="&#x2c9;" horiz-adv-x="475" 
d="M466 666h-288l-10 -54h286z" />
    <glyph glyph-name="degree" unicode="&#xb0;" horiz-adv-x="456" 
d="M450 556q0 34 -12.5 63.5t-34.5 51.5t-51.5 34.5t-63.5 12.5t-63.5 -12.5t-51 -34.5t-34 -51.5t-12.5 -63.5t12.5 -63.5t34 -51t51 -34t63.5 -12.5t63.5 12.5t51.5 34t34.5 51t12.5 63.5zM391 556q0 -23 -8 -42t-22 -33t-32.5 -22t-40.5 -8t-40.5 8t-32 22t-21.5 33
t-8 42q0 22 8 41.5t21.5 33.5t32 22t40.5 8q44 0 73.5 -30t29.5 -75z" />
    <glyph glyph-name="plusminus" unicode="&#xb1;" 
d="M467 352h-165l36 177h-65l-35 -177h-167l-13 -64h167l-36 -179h65l35 179h165zM412 64h-397l-13 -64h397z" />
    <glyph glyph-name="twosuperior" unicode="&#xb2;" horiz-adv-x="325" 
d="M352 617q0 41 -25 70t-78 29q-36 0 -60 -11t-39.5 -28.5t-23.5 -38t-12 -39.5h55q2 12 7 24t13.5 21.5t21.5 15.5t33 6q29 0 40.5 -15.5t11.5 -37.5q0 -24 -10.5 -43.5t-32.5 -41.5l-188 -193l-10 -50h237l10 50h-168l156 159q22 23 42 53.5t20 69.5z" />
    <glyph glyph-name="threesuperior" unicode="&#xb3;" horiz-adv-x="338" 
d="M359 614q0 47 -28 74.5t-75 27.5q-50 0 -86.5 -26t-50.5 -88h56q9 35 28 49.5t49 14.5q19 0 35 -12t16 -42q0 -15 -4 -30.5t-13.5 -27.5t-25 -19.5t-37.5 -7.5h-8l-10 -48h9q35 0 47 -16.5t12 -45.5q0 -23 -7.5 -39.5t-19.5 -27t-26.5 -15.5t-27.5 -5q-33 0 -48 18
t-11 50h-56q-1 -5 -1.5 -10.5t-0.5 -13.5q0 -15 5.5 -31.5t18.5 -30.5t34.5 -23t53.5 -9q36 0 62.5 11.5t44.5 30.5t26.5 44t8.5 51q0 35 -10.5 54t-31.5 31q37 15 54.5 44.5t17.5 67.5z" />
    <glyph glyph-name="acute" unicode="&#xb4;" horiz-adv-x="475" 
d="M455 740h-84l-112 -151h66z" />
    <glyph glyph-name="mu" unicode="&#xb5;" horiz-adv-x="536" 
d="M499 493h-71l-60 -302q-9 -45 -28 -71.5t-41 -40.5t-42.5 -18.5t-33.5 -4.5q-38 0 -64 21t-26 66q0 10 1.5 22t3.5 24l61 304h-70l-142 -712h70l50 253q15 -19 38 -29.5t52 -10.5q49 0 84.5 16t60.5 45l-10 -55h69z" />
    <glyph glyph-name="mu" unicode="&#x3bc;" horiz-adv-x="536" 
d="M499 493h-71l-60 -302q-9 -45 -28 -71.5t-41 -40.5t-42.5 -18.5t-33.5 -4.5q-38 0 -64 21t-26 66q0 10 1.5 22t3.5 24l61 304h-70l-142 -712h70l50 253q15 -19 38 -29.5t52 -10.5q49 0 84.5 16t60.5 45l-10 -55h69z" />
    <glyph glyph-name="paragraph" unicode="&#xb6;" horiz-adv-x="574" 
d="M571 712h-239q-61 0 -106 -17.5t-74 -46.5t-43.5 -65.5t-14.5 -74.5q0 -33 11 -62.5t31 -52t48 -36.5t62 -15l-112 -561h70l173 866h110l-172 -866h70z" />
    <glyph glyph-name="periodcentered" unicode="&#xb7;" horiz-adv-x="257" 
d="M187 315h-90l-18 -90h90z" />
    <glyph glyph-name="cedilla" unicode="&#xb8;" horiz-adv-x="475" 
d="M236 -66h-64l-96 -146h77z" />
    <glyph glyph-name="onesuperior" unicode="&#xb9;" horiz-adv-x="249" 
d="M269 712h-56l-94 -69l-14 -69l95 71l-72 -360h55z" />
    <glyph glyph-name="ordmasculine" unicode="&#xba;" horiz-adv-x="432" 
d="M425 586q0 40 -13.5 65.5t-33 40t-41 19.5t-38.5 5q-30 0 -59 -10.5t-54 -32.5q-29 -26 -46 -65t-28 -93q-2 -14 -4.5 -33.5t-2.5 -37.5q0 -41 13.5 -66t33 -39.5t41.5 -19.5t39 -5q30 0 58.5 10t53.5 32q29 26 46 65.5t28 93.5q2 14 4.5 33.5t2.5 37.5zM369 582
q0 -17 -2.5 -33.5t-5.5 -33.5q-8 -38 -20 -69t-32 -51q-10 -10 -28.5 -20t-44.5 -10q-14 0 -27 4t-24 13.5t-17.5 25t-6.5 39.5q0 17 2.5 34t5.5 34q8 38 20.5 69t32.5 51q10 10 28 19.5t44 9.5q13 0 26.5 -4t24.5 -13.5t17.5 -25t6.5 -39.5z" />
    <glyph glyph-name="guillemotright" unicode="&#xbb;" horiz-adv-x="528" 
d="M496 267l-161 211l-16 -84l91 -121l-138 -121l-19 -95zM280 267l-161 211l-17 -84l93 -121l-139 -121l-19 -95z" />
    <glyph glyph-name="onequarter" unicode="&#xbc;" horiz-adv-x="744" 
d="M634 712h-60l-458 -712h60zM683 427h-62l-203 -310l-10 -51h165l-13 -66h54l13 66h46l9 51h-45l21 104h-54l-21 -104h-104zM269 712h-56l-95 -70l-13 -68l95 71l-72 -360h55z" />
    <glyph glyph-name="onehalf" unicode="&#xbd;" horiz-adv-x="758" 
d="M728 332q0 41 -25.5 70t-78.5 29q-36 0 -60 -11t-39.5 -28.5t-23.5 -38t-12 -39.5h56q2 12 7 24t13.5 21.5t21.5 15.5t33 6q29 0 40.5 -15.5t11.5 -37.5q0 -24 -10.5 -43.5t-32.5 -41.5l-188 -193l-11 -50h237l11 50h-168l155 159q22 23 42.5 53.5t20.5 69.5zM623 712
h-60l-459 -712h60zM269 712h-56l-95 -70l-13 -68l95 71l-72 -360h55z" />
    <glyph glyph-name="threequarters" unicode="&#xbe;" horiz-adv-x="794" 
d="M359 614q0 47 -28 74.5t-75 27.5q-50 0 -86.5 -26t-50.5 -88h56q9 35 28 49.5t49 14.5q19 0 35 -12t16 -42q0 -15 -4 -30.5t-13.5 -27.5t-25 -19.5t-37.5 -7.5h-8l-10 -48h9q35 0 47 -16.5t12 -45.5q0 -23 -7.5 -39.5t-19.5 -27t-26.5 -15.5t-27.5 -5q-33 0 -48 18
t-11 50h-56q-1 -5 -1.5 -10.5t-0.5 -13.5q0 -15 5.5 -31.5t18.5 -30.5t34.5 -23t53.5 -9q36 0 62.5 11.5t44.5 30.5t26.5 44t8.5 51q0 35 -10.5 54t-31.5 31q37 15 54.5 44.5t17.5 67.5zM689 712h-60l-458 -712h59zM731 117h-46l21 104h-54l-21 -104h-104l204 310h-62
l-203 -310l-10 -51h166l-14 -66h54l13 66h46z" />
    <glyph glyph-name="questiondown" unicode="&#xbf;" horiz-adv-x="474" 
d="M347 -47h-71q-11 -54 -46.5 -84.5t-85.5 -30.5q-45 0 -67 26t-22 62q0 35 13 61t38 55l100 115q22 25 32 45.5t16 49.5l9 45h-70l-8 -42q-2 -12 -10.5 -28.5t-19.5 -29.5l-101 -117q-32 -36 -51 -73t-19 -85q0 -35 12 -62.5t32.5 -46t47.5 -28.5t57 -10q85 0 141.5 46.5
t72.5 131.5zM302 493h-83l-16 -86h83z" />
    <glyph glyph-name="Agrave" unicode="&#xc0;" horiz-adv-x="581" 
d="M521 0l-107 712h-61l-389 -712h78l87 162h296l22 -162h74zM418 223h-257l204 384zM416 776l-52 151h-80l72 -151h60z" />
    <glyph glyph-name="Aacute" unicode="&#xc1;" horiz-adv-x="581" 
d="M521 0l-107 712h-61l-389 -712h78l87 162h296l22 -162h74zM418 223h-257l204 384zM522 927h-84l-112 -151h66z" />
    <glyph glyph-name="Acircumflex" unicode="&#xc2;" horiz-adv-x="581" 
d="M521 0l-107 712h-61l-389 -712h78l87 162h296l22 -162h74zM418 223h-257l204 384zM529 781l-90 153h-65l-150 -153h69l109 106l64 -106h63z" />
    <glyph glyph-name="Atilde" unicode="&#xc3;" horiz-adv-x="581" 
d="M521 0l-107 712h-61l-389 -712h78l87 162h296l22 -162h74zM418 223h-257l204 384zM538 840l-30 39q-18 -17 -32 -25.5t-30 -8.5t-25 4t-26 15q-14 10 -31 17t-39 7q-25 0 -47.5 -11t-48.5 -36l30 -39q19 18 33 26t29 8q16 0 25.5 -3.5t25.5 -15.5q14 -10 30.5 -17
t38.5 -7q25 0 48 11t49 36z" />
    <glyph glyph-name="Adieresis" unicode="&#xc4;" horiz-adv-x="581" 
d="M521 0l-107 712h-61l-389 -712h78l87 162h296l22 -162h74zM418 223h-257l204 384zM542 872h-70l-18 -88h71zM341 872h-70l-17 -88h69z" />
    <glyph glyph-name="Aring" unicode="&#xc5;" horiz-adv-x="581" 
d="M521 0l-107 712h-61l-389 -712h78l87 162h296l22 -162h74zM418 223h-257l204 384zM509 867q0 25 -9.5 46t-25.5 37t-37.5 25t-45.5 9t-45.5 -9t-37.5 -25t-25 -37t-9 -46t9 -46.5t25 -37.5t37.5 -25.5t45.5 -9.5t45.5 9.5t37.5 25.5t25.5 37.5t9.5 46.5zM462 867
q0 -29 -21.5 -50t-49.5 -21t-49 21t-21 50t21 49t49 20t49.5 -20t21.5 -49z" />
    <glyph glyph-name="AE" unicode="&#xc6;" horiz-adv-x="881" 
d="M920 712h-462l-499 -712h82l120 173h232l-34 -173h423l13 63h-351l52 262h296l13 64h-296l52 260h346zM489 649l-83 -415h-204z" />
    <glyph glyph-name="Ccedilla" unicode="&#xc7;" horiz-adv-x="607" 
d="M592 509q0 45 -13 83.5t-38.5 66.5t-63.5 43.5t-89 15.5q-54 0 -104 -21.5t-85 -56.5q-22 -22 -37 -46.5t-26.5 -57.5t-21.5 -76.5t-21 -103.5q-8 -39 -12.5 -67t-7 -47.5t-3.5 -33t-1 -22.5q0 -46 16 -82t44 -60.5t65 -37t79 -12.5q45 0 86.5 14t76.5 41t61.5 65.5
t42.5 88.5h-74q-11 -28 -28 -54t-41 -46.5t-54 -33t-67 -12.5q-27 0 -51.5 9t-42.5 25.5t-29 41t-11 55.5q0 12 1 26.5t4 34.5t7.5 46t11.5 61q10 53 19 91.5t18.5 66t20.5 47t26 34.5q29 29 62.5 44.5t75.5 15.5q62 0 96.5 -40t34.5 -106h73zM297 -66h-64l-96 -146h77z" />
    <glyph glyph-name="Egrave" unicode="&#xc8;" horiz-adv-x="572" 
d="M611 712h-419l-143 -712h426l12 63h-353l54 265h297l12 63h-297l52 258h346zM429 776l-52 151h-80l72 -151h60z" />
    <glyph glyph-name="Eacute" unicode="&#xc9;" horiz-adv-x="572" 
d="M611 712h-419l-143 -712h426l12 63h-353l54 265h297l12 63h-297l52 258h346zM520 927h-84l-112 -151h66z" />
    <glyph glyph-name="Ecircumflex" unicode="&#xca;" horiz-adv-x="572" 
d="M611 712h-419l-143 -712h426l12 63h-353l54 265h297l12 63h-297l52 258h346zM540 781l-90 153h-65l-150 -153h69l109 106l64 -106h63z" />
    <glyph glyph-name="Edieresis" unicode="&#xcb;" horiz-adv-x="572" 
d="M611 712h-419l-143 -712h426l12 63h-353l54 265h297l12 63h-297l52 258h346zM542 872h-70l-18 -88h71zM341 872h-70l-17 -88h69z" />
    <glyph glyph-name="Igrave" unicode="&#xcc;" horiz-adv-x="268" 
d="M264 712h-72l-143 -712h72zM263 776l-52 151h-80l72 -151h60z" />
    <glyph glyph-name="Iacute" unicode="&#xcd;" horiz-adv-x="268" 
d="M264 712h-72l-143 -712h72zM366 927h-84l-112 -151h66z" />
    <glyph glyph-name="Icircumflex" unicode="&#xce;" horiz-adv-x="268" 
d="M264 712h-72l-143 -712h72zM380 781l-90 153h-65l-150 -153h69l109 106l64 -106h63z" />
    <glyph glyph-name="Idieresis" unicode="&#xcf;" horiz-adv-x="268" 
d="M264 712h-72l-143 -712h72zM389 872h-70l-18 -88h71zM188 872h-70l-17 -88h69z" />
    <glyph glyph-name="Eth" unicode="&#xd0;" horiz-adv-x="653" 
d="M626 518q0 56 -17.5 93.5t-46 60t-64 31.5t-71.5 9h-222l-66 -325h-73l-11 -56h73l-66 -331h236q54 0 101.5 16.5t83.5 48.5q24 22 41.5 47.5t31.5 60.5t25.5 81.5t23.5 109.5q6 31 10 54t6.5 41t3.5 31.5t1 27.5zM554 515q0 -13 -1 -26.5t-4 -30.5t-7 -40t-10 -54
q-10 -54 -20 -94.5t-21 -70t-24 -50t-29 -35.5q-32 -29 -69 -40t-75 -11h-147l54 268h154l11 56h-154l53 262h148q74 0 107.5 -37t33.5 -97z" />
    <glyph glyph-name="Ntilde" unicode="&#xd1;" horiz-adv-x="696" 
d="M692 712h-73l-115 -577l-245 577h-67l-143 -712h72l116 577l245 -577h67zM597 840l-30 39q-19 -17 -33 -25.5t-29 -8.5q-16 0 -25.5 4t-25.5 15q-14 10 -31 17t-39 7q-25 0 -47.5 -11t-48.5 -36l30 -39q18 18 32 26t30 8t25 -3.5t26 -15.5q14 -10 30.5 -17t38.5 -7
q25 0 48 11t49 36z" />
    <glyph glyph-name="Ograve" unicode="&#xd2;" horiz-adv-x="617" 
d="M590 526q0 43 -15 78.5t-41.5 60.5t-62.5 39t-79 14q-55 0 -105.5 -21t-87.5 -58q-22 -22 -37 -46.5t-26.5 -57t-21.5 -76t-21 -103.5q-7 -37 -11.5 -63.5t-7.5 -46.5t-4 -34t-1 -26q0 -43 14.5 -78.5t41 -60.5t62.5 -39t79 -14q55 0 105.5 21t87.5 58q22 22 37 46.5
t26.5 57t21.5 76t21 103.5q7 37 11.5 63.5t7.5 46.5t4.5 34t1.5 26zM516 522q0 -12 -1 -26t-4 -33.5t-7.5 -45t-11.5 -61.5q-11 -56 -20 -95t-18.5 -66t-20 -45t-24.5 -32q-29 -29 -64 -45t-77 -16q-24 0 -46.5 8.5t-40 25t-28.5 41.5t-11 58q0 12 1 26t4 33.5t7.5 45
t11.5 61.5q10 56 19.5 95t19 66t20 45t24.5 32q29 29 64 45t77 16q24 0 46.5 -8.5t40 -25t28.5 -41.5t11 -58zM440 776l-52 151h-80l72 -151h60z" />
    <glyph glyph-name="Oacute" unicode="&#xd3;" horiz-adv-x="617" 
d="M590 526q0 43 -15 78.5t-41.5 60.5t-62.5 39t-79 14q-55 0 -105.5 -21t-87.5 -58q-22 -22 -37 -46.5t-26.5 -57t-21.5 -76t-21 -103.5q-7 -37 -11.5 -63.5t-7.5 -46.5t-4 -34t-1 -26q0 -43 14.5 -78.5t41 -60.5t62.5 -39t79 -14q55 0 105.5 21t87.5 58q22 22 37 46.5
t26.5 57t21.5 76t21 103.5q7 37 11.5 63.5t7.5 46.5t4.5 34t1.5 26zM516 522q0 -12 -1 -26t-4 -33.5t-7.5 -45t-11.5 -61.5q-11 -56 -20 -95t-18.5 -66t-20 -45t-24.5 -32q-29 -29 -64 -45t-77 -16q-24 0 -46.5 8.5t-40 25t-28.5 41.5t-11 58q0 12 1 26t4 33.5t7.5 45
t11.5 61.5q10 56 19.5 95t19 66t20 45t24.5 32q29 29 64 45t77 16q24 0 46.5 -8.5t40 -25t28.5 -41.5t11 -58zM545 927h-84l-112 -151h66z" />
    <glyph glyph-name="Ocircumflex" unicode="&#xd4;" horiz-adv-x="617" 
d="M590 526q0 43 -15 78.5t-41.5 60.5t-62.5 39t-79 14q-55 0 -105.5 -21t-87.5 -58q-22 -22 -37 -46.5t-26.5 -57t-21.5 -76t-21 -103.5q-7 -37 -11.5 -63.5t-7.5 -46.5t-4 -34t-1 -26q0 -43 14.5 -78.5t41 -60.5t62.5 -39t79 -14q55 0 105.5 21t87.5 58q22 22 37 46.5
t26.5 57t21.5 76t21 103.5q7 37 11.5 63.5t7.5 46.5t4.5 34t1.5 26zM516 522q0 -12 -1 -26t-4 -33.5t-7.5 -45t-11.5 -61.5q-11 -56 -20 -95t-18.5 -66t-20 -45t-24.5 -32q-29 -29 -64 -45t-77 -16q-24 0 -46.5 8.5t-40 25t-28.5 41.5t-11 58q0 12 1 26t4 33.5t7.5 45
t11.5 61.5q10 56 19.5 95t19 66t20 45t24.5 32q29 29 64 45t77 16q24 0 46.5 -8.5t40 -25t28.5 -41.5t11 -58zM553 781l-90 153h-65l-150 -153h69l109 106l64 -106h63z" />
    <glyph glyph-name="Otilde" unicode="&#xd5;" horiz-adv-x="617" 
d="M590 526q0 43 -15 78.5t-41.5 60.5t-62.5 39t-79 14q-55 0 -105.5 -21t-87.5 -58q-22 -22 -37 -46.5t-26.5 -57t-21.5 -76t-21 -103.5q-7 -37 -11.5 -63.5t-7.5 -46.5t-4 -34t-1 -26q0 -43 14.5 -78.5t41 -60.5t62.5 -39t79 -14q55 0 105.5 21t87.5 58q22 22 37 46.5
t26.5 57t21.5 76t21 103.5q7 37 11.5 63.5t7.5 46.5t4.5 34t1.5 26zM516 522q0 -12 -1 -26t-4 -33.5t-7.5 -45t-11.5 -61.5q-11 -56 -20 -95t-18.5 -66t-20 -45t-24.5 -32q-29 -29 -64 -45t-77 -16q-24 0 -46.5 8.5t-40 25t-28.5 41.5t-11 58q0 12 1 26t4 33.5t7.5 45
t11.5 61.5q10 56 19.5 95t19 66t20 45t24.5 32q29 29 64 45t77 16q24 0 46.5 -8.5t40 -25t28.5 -41.5t11 -58zM562 840l-30 39q-19 -17 -33 -25.5t-29 -8.5q-16 0 -25.5 4t-25.5 15q-14 10 -31.5 17t-38.5 7q-25 0 -47.5 -11t-48.5 -36l30 -39q18 18 32 26t30 8
q15 0 24.5 -3.5t26.5 -15.5q14 -10 30.5 -17t38.5 -7q25 0 48 11t49 36z" />
    <glyph glyph-name="Odieresis" unicode="&#xd6;" horiz-adv-x="617" 
d="M590 526q0 43 -15 78.5t-41.5 60.5t-62.5 39t-79 14q-55 0 -105.5 -21t-87.5 -58q-22 -22 -37 -46.5t-26.5 -57t-21.5 -76t-21 -103.5q-7 -37 -11.5 -63.5t-7.5 -46.5t-4 -34t-1 -26q0 -43 14.5 -78.5t41 -60.5t62.5 -39t79 -14q55 0 105.5 21t87.5 58q22 22 37 46.5
t26.5 57t21.5 76t21 103.5q7 37 11.5 63.5t7.5 46.5t4.5 34t1.5 26zM516 522q0 -12 -1 -26t-4 -33.5t-7.5 -45t-11.5 -61.5q-11 -56 -20 -95t-18.5 -66t-20 -45t-24.5 -32q-29 -29 -64 -45t-77 -16q-24 0 -46.5 8.5t-40 25t-28.5 41.5t-11 58q0 12 1 26t4 33.5t7.5 45
t11.5 61.5q10 56 19.5 95t19 66t20 45t24.5 32q29 29 64 45t77 16q24 0 46.5 -8.5t40 -25t28.5 -41.5t11 -58zM560 872h-70l-18 -88h71zM359 872h-70l-17 -88h69z" />
    <glyph glyph-name="multiply" unicode="&#xd7;" 
d="M468 416l-36 48l-172 -149l-115 153l-50 -43l115 -153l-172 -149l37 -48l172 149l115 -152l49 43l-115 152z" />
    <glyph glyph-name="Oslash" unicode="&#xd8;" horiz-adv-x="618" 
d="M619 756h-64l-46 -71q-48 33 -117 33q-55 0 -105.5 -21t-87.5 -58q-22 -22 -37 -46.5t-26.5 -57t-21.5 -76t-21 -103.5q-7 -37 -11.5 -63.5t-7.5 -46.5t-4.5 -34t-1.5 -26q0 -36 11.5 -68t30.5 -55l-69 -107h63l46 71q24 -17 54 -25t63 -8q55 0 105.5 21t87.5 58
q22 22 37 46.5t26.5 57t21.5 76t21 103.5q7 37 11.5 63.5t7.5 46.5t4 34t1 26q0 73 -41 123zM142 190q0 12 1 26t4 33.5t7.5 45t11.5 61.5q10 56 19.5 95t19 66t20 45t24.5 32q29 29 64 45t77 16q22 0 43.5 -7.5t38.5 -22.5l-318 -495q-12 25 -12 60zM516 522q0 -12 -1 -26
t-4 -33.5t-7.5 -45t-11.5 -61.5q-11 -56 -20 -95t-18.5 -66t-20 -45t-24.5 -32q-29 -29 -64 -45t-77 -16q-23 0 -44.5 7t-38.5 22l319 495q12 -26 12 -59z" />
    <glyph glyph-name="Ugrave" unicode="&#xd9;" horiz-adv-x="649" 
d="M654 712h-73l-92 -466q-9 -48 -29.5 -83.5t-47.5 -58.5t-59 -34.5t-66 -11.5q-36 0 -61 11.5t-41 30.5t-23 42.5t-7 47.5q0 13 1.5 28t3.5 23l94 471h-73l-92 -464q-2 -12 -4.5 -28.5t-2.5 -32.5q0 -51 17.5 -87.5t46 -60t63.5 -34.5t71 -11q52 0 98 15.5t82.5 46
t61.5 75t37 103.5zM463 776l-52 151h-80l72 -151h60z" />
    <glyph glyph-name="Uacute" unicode="&#xda;" horiz-adv-x="649" 
d="M654 712h-73l-92 -466q-9 -48 -29.5 -83.5t-47.5 -58.5t-59 -34.5t-66 -11.5q-36 0 -61 11.5t-41 30.5t-23 42.5t-7 47.5q0 13 1.5 28t3.5 23l94 471h-73l-92 -464q-2 -12 -4.5 -28.5t-2.5 -32.5q0 -51 17.5 -87.5t46 -60t63.5 -34.5t71 -11q52 0 98 15.5t82.5 46
t61.5 75t37 103.5zM568 927h-84l-112 -151h66z" />
    <glyph glyph-name="Ucircumflex" unicode="&#xdb;" horiz-adv-x="649" 
d="M654 712h-73l-92 -466q-9 -48 -29.5 -83.5t-47.5 -58.5t-59 -34.5t-66 -11.5q-36 0 -61 11.5t-41 30.5t-23 42.5t-7 47.5q0 13 1.5 28t3.5 23l94 471h-73l-92 -464q-2 -12 -4.5 -28.5t-2.5 -32.5q0 -51 17.5 -87.5t46 -60t63.5 -34.5t71 -11q52 0 98 15.5t82.5 46
t61.5 75t37 103.5zM577 781l-90 153h-65l-150 -153h69l109 106l64 -106h63z" />
    <glyph glyph-name="Udieresis" unicode="&#xdc;" horiz-adv-x="649" 
d="M654 712h-73l-92 -466q-9 -48 -29.5 -83.5t-47.5 -58.5t-59 -34.5t-66 -11.5q-36 0 -61 11.5t-41 30.5t-23 42.5t-7 47.5q0 13 1.5 28t3.5 23l94 471h-73l-92 -464q-2 -12 -4.5 -28.5t-2.5 -32.5q0 -51 17.5 -87.5t46 -60t63.5 -34.5t71 -11q52 0 98 15.5t82.5 46
t61.5 75t37 103.5zM580 872h-70l-18 -88h71zM379 872h-70l-17 -88h69z" />
    <glyph glyph-name="Yacute" unicode="&#xdd;" horiz-adv-x="490" 
d="M575 712h-81l-224 -344l-94 344h-76l121 -416l-60 -296h73l59 291zM473 927h-84l-112 -151h66z" />
    <glyph glyph-name="Thorn" unicode="&#xde;" horiz-adv-x="611" 
d="M586 396q0 33 -10 64t-31.5 55t-56.5 38.5t-84 14.5h-169l29 144h-72l-143 -712h72l32 153h181q60 0 106.5 19t79 52t49.5 77t17 95zM513 392q0 -38 -13 -70.5t-36 -55.5t-55.5 -36t-71.5 -13h-172l58 287h172q33 0 55.5 -9.5t36.5 -25t20 -35.5t6 -42z" />
    <glyph glyph-name="germandbls" unicode="&#xdf;" horiz-adv-x="531" 
d="M525 574q0 71 -45 108t-114 37q-185 0 -224 -194l-105 -525h70l105 522q12 60 46 98t101 38q26 0 44 -6.5t32 -20.5q11 -11 15.5 -26.5t4.5 -32.5q0 -20 -6.5 -40t-19.5 -36t-32.5 -26t-44.5 -10h-35l-12 -58h44q26 0 44.5 -13.5t18.5 -44.5q0 -10 -3 -25l-34 -170
q-5 -23 -14.5 -40.5t-22.5 -27.5q-14 -11 -27.5 -16t-32.5 -5h-41l-11 -60h57q64 0 105.5 36.5t55.5 105.5l33 172q5 23 5 38q0 25 -10.5 44.5t-33.5 32.5q43 23 65 62.5t22 82.5z" />
    <glyph glyph-name="agrave" unicode="&#xe0;" horiz-adv-x="501" 
d="M443 371q0 40 -16 65t-40.5 39t-53.5 19t-55 5q-63 0 -104 -17.5t-74 -53.5l41 -48q27 30 57 44.5t76 14.5t72.5 -18.5t26.5 -54.5q0 -9 -1 -17.5t-3 -15.5l-11 -52h-144q-42 0 -78.5 -11.5t-66.5 -40.5q-24 -23 -34 -53.5t-10 -61.5q0 -33 12 -56t32.5 -37t47.5 -20.5
t56 -6.5q47 0 80 13.5t61 41.5l-11 -49h69l66 332q2 9 3.5 20t1.5 19zM348 229l-11 -57q-9 -51 -40 -80q-39 -39 -105 -39q-52 0 -75 16.5t-23 48.5q0 54 35 82.5t92 28.5h127zM348 589l-52 151h-80l72 -151h60z" />
    <glyph glyph-name="aacute" unicode="&#xe1;" horiz-adv-x="501" 
d="M443 371q0 40 -16 65t-40.5 39t-53.5 19t-55 5q-63 0 -104 -17.5t-74 -53.5l41 -48q27 30 57 44.5t76 14.5t72.5 -18.5t26.5 -54.5q0 -9 -1 -17.5t-3 -15.5l-11 -52h-144q-42 0 -78.5 -11.5t-66.5 -40.5q-24 -23 -34 -53.5t-10 -61.5q0 -33 12 -56t32.5 -37t47.5 -20.5
t56 -6.5q47 0 80 13.5t61 41.5l-11 -49h69l66 332q2 9 3.5 20t1.5 19zM348 229l-11 -57q-9 -51 -40 -80q-39 -39 -105 -39q-52 0 -75 16.5t-23 48.5q0 54 35 82.5t92 28.5h127zM453 740h-84l-112 -151h66z" />
    <glyph glyph-name="acircumflex" unicode="&#xe2;" horiz-adv-x="501" 
d="M443 371q0 40 -16 65t-40.5 39t-53.5 19t-55 5q-63 0 -104 -17.5t-74 -53.5l41 -48q27 30 57 44.5t76 14.5t72.5 -18.5t26.5 -54.5q0 -9 -1 -17.5t-3 -15.5l-11 -52h-144q-42 0 -78.5 -11.5t-66.5 -40.5q-24 -23 -34 -53.5t-10 -61.5q0 -33 12 -56t32.5 -37t47.5 -20.5
t56 -6.5q47 0 80 13.5t61 41.5l-11 -49h69l66 332q2 9 3.5 20t1.5 19zM348 229l-11 -57q-9 -51 -40 -80q-39 -39 -105 -39q-52 0 -75 16.5t-23 48.5q0 54 35 82.5t92 28.5h127zM459 594l-90 153h-65l-150 -153h69l109 106l64 -106h63z" />
    <glyph glyph-name="atilde" unicode="&#xe3;" horiz-adv-x="501" 
d="M443 371q0 40 -16 65t-40.5 39t-53.5 19t-55 5q-63 0 -104 -17.5t-74 -53.5l41 -48q27 30 57 44.5t76 14.5t72.5 -18.5t26.5 -54.5q0 -9 -1 -17.5t-3 -15.5l-11 -52h-144q-42 0 -78.5 -11.5t-66.5 -40.5q-24 -23 -34 -53.5t-10 -61.5q0 -33 12 -56t32.5 -37t47.5 -20.5
t56 -6.5q47 0 80 13.5t61 41.5l-11 -49h69l66 332q2 9 3.5 20t1.5 19zM348 229l-11 -57q-9 -51 -40 -80q-39 -39 -105 -39q-52 0 -75 16.5t-23 48.5q0 54 35 82.5t92 28.5h127zM470 654l-30 39q-19 -18 -33 -26t-29 -8q-16 0 -25 3.5t-26 15.5q-14 10 -31 17t-39 7
q-25 0 -47.5 -11t-48.5 -36l30 -39q19 17 33 25.5t29 8.5q16 0 25 -4t26 -15q14 -10 30.5 -17t38.5 -7q25 0 48 11t49 36z" />
    <glyph glyph-name="adieresis" unicode="&#xe4;" horiz-adv-x="501" 
d="M443 371q0 40 -16 65t-40.5 39t-53.5 19t-55 5q-63 0 -104 -17.5t-74 -53.5l41 -48q27 30 57 44.5t76 14.5t72.5 -18.5t26.5 -54.5q0 -9 -1 -17.5t-3 -15.5l-11 -52h-144q-42 0 -78.5 -11.5t-66.5 -40.5q-24 -23 -34 -53.5t-10 -61.5q0 -33 12 -56t32.5 -37t47.5 -20.5
t56 -6.5q47 0 80 13.5t61 41.5l-11 -49h69l66 332q2 9 3.5 20t1.5 19zM348 229l-11 -57q-9 -51 -40 -80q-39 -39 -105 -39q-52 0 -75 16.5t-23 48.5q0 54 35 82.5t92 28.5h127zM464 685h-70l-18 -88h71zM263 685h-70l-17 -88h69z" />
    <glyph glyph-name="aring" unicode="&#xe5;" horiz-adv-x="501" 
d="M443 371q0 40 -16 65t-40.5 39t-53.5 19t-55 5q-63 0 -104 -17.5t-74 -53.5l41 -48q27 30 57 44.5t76 14.5t72.5 -18.5t26.5 -54.5q0 -9 -1 -17.5t-3 -15.5l-11 -52h-144q-42 0 -78.5 -11.5t-66.5 -40.5q-24 -23 -34 -53.5t-10 -61.5q0 -33 12 -56t32.5 -37t47.5 -20.5
t56 -6.5q47 0 80 13.5t61 41.5l-11 -49h69l66 332q2 9 3.5 20t1.5 19zM441 687q0 25 -9.5 46t-25.5 37t-37.5 25t-45.5 9t-45.5 -9t-37 -25t-25 -37t-9.5 -46t9.5 -46.5t25 -37.5t37 -25.5t45.5 -9.5t45.5 9.5t37.5 25.5t25.5 37.5t9.5 46.5zM348 229l-11 -57
q-9 -51 -40 -80q-39 -39 -105 -39q-52 0 -75 16.5t-23 48.5q0 54 35 82.5t92 28.5h127zM394 687q0 -29 -21 -50t-50 -21q-28 0 -49 21t-21 50t21 49t49 20q29 0 50 -20t21 -49z" />
    <glyph glyph-name="ae" unicode="&#xe6;" horiz-adv-x="799" 
d="M746 331q0 36 -10 66.5t-30.5 53t-50.5 35.5t-69 13q-52 0 -91.5 -21t-67.5 -56q-11 24 -28 39t-37 23.5t-42 11.5t-42 3q-63 0 -104 -17.5t-74 -53.5l41 -48q27 30 57 44.5t76 14.5t72.5 -18.5t26.5 -54.5q0 -9 -1 -18t-3 -16l-11 -51h-144q-42 0 -79 -11t-66 -41
q-23 -23 -33.5 -53.5t-10.5 -61.5q0 -34 12.5 -57t34 -37t50 -20t61.5 -6q66 0 108 21.5t71 64.5q20 -42 59.5 -64t90.5 -22q57 0 101.5 17.5t83.5 54.5l-42 47q-32 -29 -63 -43.5t-75 -14.5q-56 0 -81 31.5t-25 80.5q0 17 1.5 31.5t4.5 30.5h317q6 29 9 56t3 46zM348 229
l-11 -58q-9 -50 -40 -79q-39 -39 -105 -39q-52 0 -75 16.5t-23 48.5q0 54 35 82.5t92 28.5h127zM678 331q0 -16 -1 -27t-3 -23h-248q22 83 63 121t95 38q38 0 66 -26t28 -83z" />
    <glyph glyph-name="ccedilla" unicode="&#xe7;" horiz-adv-x="466" 
d="M450 426q-24 34 -57 53.5t-85 19.5q-96 0 -162 -64t-89 -188q-4 -20 -5.5 -40.5t-1.5 -35.5q0 -37 10.5 -69.5t32.5 -56.5t54 -37.5t76 -13.5q45 0 87 17t77 52l-41 50q-29 -30 -56.5 -43.5t-62.5 -13.5q-21 0 -40 6.5t-34 21t-24 36.5t-9 53q0 20 2 37t6 37q7 37 22 75
t42 67q25 26 52.5 37t56.5 11q33 0 55 -13t42 -42zM242 -66h-64l-96 -146h77z" />
    <glyph glyph-name="egrave" unicode="&#xe8;" horiz-adv-x="506" 
d="M453 330q0 35 -10 66t-30.5 54t-50.5 36t-69 13q-66 0 -112 -31.5t-75 -80.5t-42.5 -108.5t-13.5 -114.5q0 -43 12.5 -75t35 -53t53.5 -31.5t67 -10.5q110 0 186 72l-42 47q-32 -29 -63 -43.5t-75 -14.5q-56 0 -81 31.5t-25 80.5q0 17 1.5 31.5t4.5 30.5h317q6 29 9 55.5
t3 45.5zM385 330q0 -15 -1 -26.5t-3 -23.5h-248q22 83 62.5 121.5t94.5 38.5q38 0 66.5 -26.5t28.5 -83.5zM364 589l-52 151h-80l72 -151h60z" />
    <glyph glyph-name="eacute" unicode="&#xe9;" horiz-adv-x="506" 
d="M453 330q0 35 -10 66t-30.5 54t-50.5 36t-69 13q-66 0 -112 -31.5t-75 -80.5t-42.5 -108.5t-13.5 -114.5q0 -43 12.5 -75t35 -53t53.5 -31.5t67 -10.5q110 0 186 72l-42 47q-32 -29 -63 -43.5t-75 -14.5q-56 0 -81 31.5t-25 80.5q0 17 1.5 31.5t4.5 30.5h317q6 29 9 55.5
t3 45.5zM385 330q0 -15 -1 -26.5t-3 -23.5h-248q22 83 62.5 121.5t94.5 38.5q38 0 66.5 -26.5t28.5 -83.5zM469 740h-84l-112 -151h66z" />
    <glyph glyph-name="ecircumflex" unicode="&#xea;" horiz-adv-x="506" 
d="M453 330q0 35 -10 66t-30.5 54t-50.5 36t-69 13q-66 0 -112 -31.5t-75 -80.5t-42.5 -108.5t-13.5 -114.5q0 -43 12.5 -75t35 -53t53.5 -31.5t67 -10.5q110 0 186 72l-42 47q-32 -29 -63 -43.5t-75 -14.5q-56 0 -81 31.5t-25 80.5q0 17 1.5 31.5t4.5 30.5h317q6 29 9 55.5
t3 45.5zM385 330q0 -15 -1 -26.5t-3 -23.5h-248q22 83 62.5 121.5t94.5 38.5q38 0 66.5 -26.5t28.5 -83.5zM474 594l-90 153h-65l-150 -153h69l109 106l64 -106h63z" />
    <glyph glyph-name="edieresis" unicode="&#xeb;" horiz-adv-x="506" 
d="M453 330q0 35 -10 66t-30.5 54t-50.5 36t-69 13q-66 0 -112 -31.5t-75 -80.5t-42.5 -108.5t-13.5 -114.5q0 -43 12.5 -75t35 -53t53.5 -31.5t67 -10.5q110 0 186 72l-42 47q-32 -29 -63 -43.5t-75 -14.5q-56 0 -81 31.5t-25 80.5q0 17 1.5 31.5t4.5 30.5h317q6 29 9 55.5
t3 45.5zM385 330q0 -15 -1 -26.5t-3 -23.5h-248q22 83 62.5 121.5t94.5 38.5q38 0 66.5 -26.5t28.5 -83.5zM478 685h-70l-18 -88h71zM277 685h-70l-17 -88h69z" />
    <glyph glyph-name="igrave" unicode="&#xec;" horiz-adv-x="241" 
d="M205 493h-70l-98 -493h70zM223 589l-52 151h-80l72 -151h60z" />
    <glyph glyph-name="iacute" unicode="&#xed;" horiz-adv-x="241" 
d="M205 493h-70l-98 -493h70zM328 740h-84l-112 -151h66z" />
    <glyph glyph-name="icircumflex" unicode="&#xee;" horiz-adv-x="241" 
d="M205 493h-70l-98 -493h70zM333 594l-90 153h-65l-150 -153h69l109 106l64 -106h63z" />
    <glyph glyph-name="idieresis" unicode="&#xef;" horiz-adv-x="241" 
d="M205 493h-70l-98 -493h70zM335 685h-70l-18 -88h71zM134 685h-70l-17 -88h69z" />
    <glyph glyph-name="eth" unicode="&#xf0;" horiz-adv-x="504" 
d="M451 331q0 27 -5.5 59t-22.5 80l-40 111h54l9 51h-78l-29 82h-70l30 -82h-87l-10 -51h112l38 -101q-14 8 -32 11.5t-44 1.5q-32 -2 -63 -13.5t-60 -37.5q-31 -27 -53.5 -72t-38.5 -125q-4 -19 -7 -43.5t-3 -44.5q0 -51 16.5 -82.5t40.5 -49.5t51.5 -24.5t49.5 -6.5
q37 0 72.5 12.5t66.5 39.5q34 29 56.5 78t36.5 121q4 20 7 42.5t3 43.5zM381 332q0 -17 -2.5 -40t-7.5 -47q-12 -60 -27.5 -94.5t-38.5 -56.5q-17 -17 -41 -28t-50 -11q-17 0 -33.5 5.5t-30 17.5t-21.5 31.5t-8 48.5q0 17 2.5 40t7.5 47q12 60 27.5 94.5t38.5 56.5
q17 17 41 27.5t50 10.5q17 0 33.5 -5t30 -17t21.5 -31.5t8 -48.5z" />
    <glyph glyph-name="ntilde" unicode="&#xf1;" horiz-adv-x="535" 
d="M474 360q0 34 -10.5 60t-29 43.5t-43 26.5t-52.5 9q-49 0 -85 -16t-61 -45l11 55h-69l-98 -493h70l60 302q9 45 28 71.5t41 40.5t43 18.5t34 4.5q38 0 63.5 -21t25.5 -66q0 -10 -1.5 -22t-3.5 -24l-61 -304h70l63 311q2 12 3.5 23.5t1.5 25.5zM500 654l-30 39
q-19 -18 -33 -26t-29 -8q-16 0 -25.5 3.5t-25.5 15.5q-14 10 -31.5 17t-38.5 7q-25 0 -47.5 -11t-48.5 -36l30 -39q18 17 32 25.5t30 8.5q15 0 24.5 -4t26.5 -15q14 -10 30.5 -17t38.5 -7q25 0 48 11t49 36z" />
    <glyph glyph-name="ograve" unicode="&#xf2;" horiz-adv-x="502" 
d="M452 336q0 51 -17 83t-41.5 49.5t-52 24t-48.5 6.5q-38 0 -74 -12.5t-67 -40.5q-30 -27 -53.5 -72.5t-39.5 -126.5q-3 -17 -6 -41.5t-3 -47.5q0 -51 17 -83t41.5 -50t52 -24.5t48.5 -6.5q38 0 74 13t67 41q30 27 53.5 72.5t39.5 126.5q3 17 6 41.5t3 47.5zM383 333
q0 -15 -3 -37t-8 -49q-12 -61 -27.5 -95t-38.5 -57q-17 -17 -41.5 -28t-50.5 -11q-18 0 -35 5.5t-30.5 18t-21.5 32t-8 48.5q0 15 3 37.5t8 49.5q12 61 27.5 95t38.5 57q17 17 41.5 27.5t50.5 10.5q18 0 35 -5.5t30.5 -18t21.5 -32.5t8 -48zM343 589l-52 151h-80l72 -151h60
z" />
    <glyph glyph-name="oacute" unicode="&#xf3;" horiz-adv-x="502" 
d="M452 336q0 51 -17 83t-41.5 49.5t-52 24t-48.5 6.5q-38 0 -74 -12.5t-67 -40.5q-30 -27 -53.5 -72.5t-39.5 -126.5q-3 -17 -6 -41.5t-3 -47.5q0 -51 17 -83t41.5 -50t52 -24.5t48.5 -6.5q38 0 74 13t67 41q30 27 53.5 72.5t39.5 126.5q3 17 6 41.5t3 47.5zM383 333
q0 -15 -3 -37t-8 -49q-12 -61 -27.5 -95t-38.5 -57q-17 -17 -41.5 -28t-50.5 -11q-18 0 -35 5.5t-30.5 18t-21.5 32t-8 48.5q0 15 3 37.5t8 49.5q12 61 27.5 95t38.5 57q17 17 41.5 27.5t50.5 10.5q18 0 35 -5.5t30.5 -18t21.5 -32.5t8 -48zM466 740h-84l-112 -151h66z" />
    <glyph glyph-name="ocircumflex" unicode="&#xf4;" horiz-adv-x="502" 
d="M452 336q0 51 -17 83t-41.5 49.5t-52 24t-48.5 6.5q-38 0 -74 -12.5t-67 -40.5q-30 -27 -53.5 -72.5t-39.5 -126.5q-3 -17 -6 -41.5t-3 -47.5q0 -51 17 -83t41.5 -50t52 -24.5t48.5 -6.5q38 0 74 13t67 41q30 27 53.5 72.5t39.5 126.5q3 17 6 41.5t3 47.5zM383 333
q0 -15 -3 -37t-8 -49q-12 -61 -27.5 -95t-38.5 -57q-17 -17 -41.5 -28t-50.5 -11q-18 0 -35 5.5t-30.5 18t-21.5 32t-8 48.5q0 15 3 37.5t8 49.5q12 61 27.5 95t38.5 57q17 17 41.5 27.5t50.5 10.5q18 0 35 -5.5t30.5 -18t21.5 -32.5t8 -48zM471 594l-90 153h-65l-150 -153
h69l109 106l64 -106h63z" />
    <glyph glyph-name="otilde" unicode="&#xf5;" horiz-adv-x="502" 
d="M452 336q0 51 -17 83t-41.5 49.5t-52 24t-48.5 6.5q-38 0 -74 -12.5t-67 -40.5q-30 -27 -53.5 -72.5t-39.5 -126.5q-3 -17 -6 -41.5t-3 -47.5q0 -51 17 -83t41.5 -50t52 -24.5t48.5 -6.5q38 0 74 13t67 41q30 27 53.5 72.5t39.5 126.5q3 17 6 41.5t3 47.5zM383 333
q0 -15 -3 -37t-8 -49q-12 -61 -27.5 -95t-38.5 -57q-17 -17 -41.5 -28t-50.5 -11q-18 0 -35 5.5t-30.5 18t-21.5 32t-8 48.5q0 15 3 37.5t8 49.5q12 61 27.5 95t38.5 57q17 17 41.5 27.5t50.5 10.5q18 0 35 -5.5t30.5 -18t21.5 -32.5t8 -48zM483 654l-30 39q-19 -18 -33 -26
t-29 -8q-16 0 -25 3.5t-26 15.5q-14 10 -31 17t-39 7q-25 0 -47.5 -11t-48.5 -36l30 -39q19 17 33 25.5t29 8.5q16 0 25 -4t26 -15q14 -10 30.5 -17t38.5 -7q25 0 48 11t49 36z" />
    <glyph glyph-name="odieresis" unicode="&#xf6;" horiz-adv-x="502" 
d="M452 336q0 51 -17 83t-41.5 49.5t-52 24t-48.5 6.5q-38 0 -74 -12.5t-67 -40.5q-30 -27 -53.5 -72.5t-39.5 -126.5q-3 -17 -6 -41.5t-3 -47.5q0 -51 17 -83t41.5 -50t52 -24.5t48.5 -6.5q38 0 74 13t67 41q30 27 53.5 72.5t39.5 126.5q3 17 6 41.5t3 47.5zM383 333
q0 -15 -3 -37t-8 -49q-12 -61 -27.5 -95t-38.5 -57q-17 -17 -41.5 -28t-50.5 -11q-18 0 -35 5.5t-30.5 18t-21.5 32t-8 48.5q0 15 3 37.5t8 49.5q12 61 27.5 95t38.5 57q17 17 41.5 27.5t50.5 10.5q18 0 35 -5.5t30.5 -18t21.5 -32.5t8 -48zM476 685h-70l-18 -88h71z
M275 685h-70l-17 -88h69z" />
    <glyph glyph-name="divide" unicode="&#xf7;" 
d="M459 302h-399l-13 -64h399zM335 484h-82l-17 -84h83zM270 140h-82l-17 -83h83z" />
    <glyph glyph-name="oslash" unicode="&#xf8;" horiz-adv-x="503" 
d="M497 537h-56l-50 -67q-24 17 -50.5 23t-46.5 6q-38 0 -74 -12.5t-67 -40.5q-30 -27 -54 -72.5t-39 -126.5q-3 -17 -6.5 -41.5t-3.5 -47.5q0 -34 8 -59.5t21 -43.5l-74 -99h55l51 68q24 -18 51.5 -24t47.5 -6q38 0 74 13t67 41q30 27 54 72.5t39 126.5q3 17 6 41.5t3 47.5
q0 35 -7.5 60.5t-21.5 43.5zM384 333q0 -15 -3 -37t-8 -49q-12 -61 -27.5 -95t-38.5 -57q-17 -17 -42 -28t-51 -11q-18 0 -34.5 5t-29.5 17l226 302q8 -21 8 -47zM120 160q0 15 2.5 37.5t7.5 49.5q12 61 28 95t39 57q17 17 41.5 27.5t50.5 10.5q17 0 33 -5t30 -16l-226 -301
q-6 19 -6 45z" />
    <glyph glyph-name="ugrave" unicode="&#xf9;" horiz-adv-x="535" 
d="M498 493h-71l-60 -302q-9 -45 -28 -71.5t-41 -40.5t-42.5 -18.5t-33.5 -4.5q-38 0 -64 21t-26 66q0 10 1.5 22t3.5 24l61 304h-70l-62 -311q-2 -12 -4 -23.5t-2 -25.5q0 -34 10.5 -60t29 -43.5t43.5 -26.5t53 -9q49 0 84.5 16t60.5 45l-10 -55h69zM373 589l-52 151h-80
l72 -151h60z" />
    <glyph glyph-name="uacute" unicode="&#xfa;" horiz-adv-x="535" 
d="M498 493h-71l-60 -302q-9 -45 -28 -71.5t-41 -40.5t-42.5 -18.5t-33.5 -4.5q-38 0 -64 21t-26 66q0 10 1.5 22t3.5 24l61 304h-70l-62 -311q-2 -12 -4 -23.5t-2 -25.5q0 -34 10.5 -60t29 -43.5t43.5 -26.5t53 -9q49 0 84.5 16t60.5 45l-10 -55h69zM478 740h-84l-112 -151
h66z" />
    <glyph glyph-name="ucircumflex" unicode="&#xfb;" horiz-adv-x="535" 
d="M498 493h-71l-60 -302q-9 -45 -28 -71.5t-41 -40.5t-42.5 -18.5t-33.5 -4.5q-38 0 -64 21t-26 66q0 10 1.5 22t3.5 24l61 304h-70l-62 -311q-2 -12 -4 -23.5t-2 -25.5q0 -34 10.5 -60t29 -43.5t43.5 -26.5t53 -9q49 0 84.5 16t60.5 45l-10 -55h69zM483 594l-90 153h-65
l-150 -153h69l109 106l64 -106h63z" />
    <glyph glyph-name="udieresis" unicode="&#xfc;" horiz-adv-x="535" 
d="M498 493h-71l-60 -302q-9 -45 -28 -71.5t-41 -40.5t-42.5 -18.5t-33.5 -4.5q-38 0 -64 21t-26 66q0 10 1.5 22t3.5 24l61 304h-70l-62 -311q-2 -12 -4 -23.5t-2 -25.5q0 -34 10.5 -60t29 -43.5t43.5 -26.5t53 -9q49 0 84.5 16t60.5 45l-10 -55h69zM488 685h-70l-18 -88
h71zM287 685h-70l-17 -88h69z" />
    <glyph glyph-name="yacute" unicode="&#xfd;" horiz-adv-x="424" 
d="M462 493h-77l-204 -397l-51 397h-70l71 -482l-49 -94q-10 -18 -18.5 -30.5t-18 -20t-22 -11t-30.5 -3.5h-21l-13 -62h31q35 0 59 8t43 25q10 9 19.5 22.5t22.5 36.5zM419 740h-84l-112 -151h66z" />
    <glyph glyph-name="thorn" unicode="&#xfe;" horiz-adv-x="519" 
d="M470 345q0 34 -8 62t-25 48.5t-43.5 32t-63.5 11.5q-29 0 -51 -6t-38.5 -15t-27.5 -20t-19 -21l55 275h-70l-186 -931h70l57 281q19 -39 53 -53.5t70 -14.5q35 0 68.5 11t62.5 40q33 33 52 83.5t33 118.5q7 35 9 59.5t2 38.5zM399 334q0 -19 -3 -41.5t-8 -45.5
q-7 -38 -18 -73t-28.5 -61t-44 -41.5t-63.5 -15.5q-26 0 -43 8t-27.5 22.5t-14.5 33t-4 39.5q0 19 3 42t8 46q7 38 18 72.5t29 60.5t44 41.5t64 15.5q26 0 43 -8t27 -22.5t14 -33t4 -39.5z" />
    <glyph glyph-name="ydieresis" unicode="&#xff;" horiz-adv-x="424" 
d="M462 493h-77l-204 -397l-51 397h-70l71 -482l-49 -94q-10 -18 -18.5 -30.5t-18 -20t-22 -11t-30.5 -3.5h-21l-13 -62h31q35 0 59 8t43 25q10 9 19.5 22.5t22.5 36.5zM432 685h-70l-18 -88h71zM231 685h-70l-17 -88h69z" />
    <glyph glyph-name="dotlessi" unicode="&#x131;" horiz-adv-x="241" 
d="M205 493h-70l-98 -493h70z" />
    <glyph glyph-name="Lslash" unicode="&#x141;" horiz-adv-x="555" 
d="M491 63h-348l55 273l167 98l13 66l-166 -98l61 310h-72l-71 -355l-79 -46l-13 -66l78 46l-58 -291h421z" />
    <glyph glyph-name="lslash" unicode="&#x142;" horiz-adv-x="303" 
d="M291 496l-86 -49l53 265h-70l-61 -307l-68 -38l-12 -64l67 39l-42 -208q-4 -17 -4 -40q0 -27 9.5 -45.5t24.5 -29t33 -15t35 -4.5h51l13 60h-41q-32 0 -43.5 11t-11.5 30q0 9 1.5 15.5t3.5 17.5l49 249l86 50z" />
    <glyph glyph-name="OE" unicode="&#x152;" horiz-adv-x="936" 
d="M975 712h-410l-16 -81q-20 40 -60.5 63.5t-97.5 23.5q-54 0 -104 -20.5t-88 -58.5q-22 -22 -37 -46.5t-26.5 -57t-21.5 -76t-21 -103.5q-7 -37 -11.5 -63.5t-7.5 -46.5t-4 -34t-1 -26q0 -44 15 -79.5t41.5 -60.5t62.5 -38.5t77 -13.5q55 0 99 20t73 52l-13 -66h416l13 64
h-349l54 264h292l13 63h-293l52 257h340zM517 522q0 -12 -1 -25.5t-4 -32.5t-8 -45t-12 -63q-11 -56 -20 -95t-18.5 -66t-20 -45t-24.5 -32q-29 -29 -64 -45t-77 -16q-24 0 -46.5 8.5t-40 25t-28.5 41.5t-11 58q0 12 1 25.5t4 32.5t7.5 45t11.5 63q11 56 20 95t18.5 66
t20 45t24.5 32q29 29 64 45t77 16q24 0 46.5 -8.5t40.5 -25t29 -41.5t11 -58z" />
    <glyph glyph-name="oe" unicode="&#x153;" horiz-adv-x="821" 
d="M768 330q0 36 -10 66.5t-30.5 53.5t-50.5 36t-69 13q-46 0 -92 -20.5t-81 -76.5q-17 51 -55.5 74t-86.5 23q-38 0 -74 -12.5t-67 -40.5q-30 -27 -54 -72.5t-39 -126.5q-3 -17 -6 -41.5t-3 -47.5q0 -51 17 -83t41.5 -50t52 -24.5t48.5 -6.5q52 0 97.5 23.5t76.5 74.5
q10 -29 26 -47.5t36 -30t42.5 -16t45.5 -4.5q110 0 186 72l-42 47q-32 -29 -63 -43.5t-75 -14.5q-56 0 -81.5 31.5t-25.5 80.5q0 17 1.5 31.5t4.5 30.5h318q6 29 9 55.5t3 45.5zM383 333q0 -15 -3 -37t-8 -49q-12 -61 -27.5 -95t-38.5 -57q-17 -17 -41.5 -28t-50.5 -11
q-18 0 -35 5.5t-30.5 18t-21.5 32t-8 48.5q0 15 3 37.5t8 49.5q12 61 27.5 95t38.5 57q17 17 41.5 27.5t50.5 10.5q18 0 35 -5.5t30.5 -18t21.5 -32.5t8 -48zM700 330q0 -15 -1.5 -26.5t-3.5 -23.5h-247q22 83 62.5 121.5t94.5 38.5q38 0 66.5 -26.5t28.5 -83.5z" />
    <glyph glyph-name="Scaron" unicode="&#x160;" horiz-adv-x="559" 
d="M552 636q-38 45 -85.5 63.5t-102.5 18.5q-68 0 -116.5 -21t-79 -54t-45 -73t-14.5 -77q0 -39 14.5 -66.5t37 -46.5t49.5 -30t53 -17l67 -16q21 -5 39.5 -12.5t32 -20t21.5 -31t8 -46.5q0 -33 -15 -60.5t-40.5 -47t-59.5 -30.5t-73 -11q-59 0 -99.5 20.5t-72.5 61.5
l-55 -48q43 -52 94 -75t126 -23q55 0 103.5 14t85 41.5t58 67.5t21.5 93q0 75 -36.5 114.5t-117.5 58.5l-67 15q-45 11 -73.5 33.5t-28.5 64.5q0 30 12 59t34.5 51.5t55.5 36t74 13.5q27 0 48 -4.5t38 -13t30.5 -20t26.5 -26.5zM542 934h-70l-108 -106l-65 106h-63l90 -153
h66z" />
    <glyph glyph-name="scaron" unicode="&#x161;" horiz-adv-x="471" 
d="M434 444q-59 55 -156 55q-53 0 -91.5 -14.5t-64.5 -40.5q-23 -23 -34.5 -53.5t-11.5 -58.5q0 -15 4.5 -31.5t18 -31.5t37.5 -26.5t63 -17.5l67 -10q32 -5 50.5 -17t18.5 -45q0 -17 -8.5 -34.5t-26 -32t-44.5 -23.5t-63 -9q-49 0 -80.5 14t-55.5 42l-52 -45q32 -35 76 -53
t106 -18q50 0 95 13t74 41q27 26 38 53.5t11 53.5q0 55 -27 83t-93 38l-66 9q-36 5 -54.5 18t-18.5 38q0 18 7.5 36t23 32t38.5 23t54 9q38 0 64.5 -9.5t50.5 -30.5zM476 747h-70l-108 -106l-65 106h-63l90 -153h66z" />
    <glyph glyph-name="Ydieresis" unicode="&#x178;" horiz-adv-x="490" 
d="M575 712h-81l-224 -344l-94 344h-76l121 -416l-60 -296h73l59 291zM496 872h-70l-18 -88h71zM295 872h-70l-17 -88h69z" />
    <glyph glyph-name="Zcaron" unicode="&#x17d;" horiz-adv-x="532" 
d="M565 712h-410l-12 -64h324l-447 -581l-14 -67h423l13 64h-341l452 588zM540 934h-70l-108 -106l-65 106h-63l90 -153h66z" />
    <glyph glyph-name="zcaron" unicode="&#x17e;" horiz-adv-x="440" 
d="M439 493h-333l-12 -62h247l-329 -372l-12 -59h347l12 62h-262l330 372zM469 747h-70l-108 -106l-65 106h-63l90 -153h66z" />
    <glyph glyph-name="florin" unicode="&#x192;" horiz-adv-x="383" 
d="M448 714h-47q-38 0 -65.5 -9.5t-47.5 -27t-33.5 -42t-24.5 -53.5l-72 -197h-101l-10 -53h92l-203 -551h71l202 551h109l12 53h-102l72 197q25 72 93 72h43z" />
    <glyph glyph-name="circumflex" unicode="&#x2c6;" horiz-adv-x="475" 
d="M460 594l-90 153h-65l-150 -153h69l109 106l64 -106h63z" />
    <glyph glyph-name="caron" unicode="&#x2c7;" horiz-adv-x="475" 
d="M491 747h-70l-108 -106l-65 106h-63l90 -153h66z" />
    <glyph glyph-name="breve" unicode="&#x2d8;" horiz-adv-x="475" 
d="M491 728h-55q-12 -45 -42.5 -65t-72.5 -20q-45 0 -67.5 23t-20.5 62h-55q-1 -5 -1.5 -10t-0.5 -14q0 -48 35.5 -82t101.5 -34q72 0 118 33t60 107z" />
    <glyph glyph-name="dotaccent" unicode="&#x2d9;" horiz-adv-x="475" 
d="M368 701h-78l-14 -72h78z" />
    <glyph glyph-name="ring" unicode="&#x2da;" horiz-adv-x="475" 
d="M443 687q0 25 -9.5 46t-25.5 37t-37.5 25t-45.5 9t-45.5 -9t-37.5 -25t-25 -37t-9 -46t9 -46.5t25 -37.5t37.5 -25.5t45.5 -9.5t45.5 9.5t37.5 25.5t25.5 37.5t9.5 46.5zM396 687q0 -29 -21.5 -50t-49.5 -21t-49 21t-21 50t21 49t49 20t49.5 -20t21.5 -49z" />
    <glyph glyph-name="ogonek" unicode="&#x2db;" horiz-adv-x="475" 
d="M215 -208l-37 147h-62l24 -147h75z" />
    <glyph glyph-name="tilde" unicode="&#x2dc;" horiz-adv-x="475" 
d="M472 654l-30 39q-19 -17 -33 -25.5t-29 -8.5q-16 0 -25 4t-26 15q-14 10 -31 17t-39 7q-25 0 -47.5 -11t-48.5 -36l30 -39q19 17 33 25.5t29 8.5q16 0 25 -4t26 -15q14 -10 30.5 -17t38.5 -7q25 0 48 11t49 36z" />
    <glyph glyph-name="hungarumlaut" unicode="&#x2dd;" horiz-adv-x="475" 
d="M526 740h-84l-112 -151h65zM370 740h-84l-112 -151h65z" />
    <glyph glyph-name="endash" unicode="&#x2013;" 
d="M458 302h-397l-12 -64h396z" />
    <glyph glyph-name="emdash" unicode="&#x2014;" horiz-adv-x="871" 
d="M812 304h-729l-13 -66h729z" />
    <glyph glyph-name="quoteleft" unicode="&#x2018;" horiz-adv-x="250" 
d="M277 792l-100 -80l-17 -85h84z" />
    <glyph glyph-name="quoteright" unicode="&#x2019;" horiz-adv-x="250" 
d="M261 712h-84l-33 -165l100 80z" />
    <glyph glyph-name="quotesinglbase" unicode="&#x201a;" horiz-adv-x="250" 
d="M136 85h-85l-33 -165l101 80z" />
    <glyph glyph-name="quotedblleft" unicode="&#x201c;" horiz-adv-x="413" 
d="M277 792l-100 -80l-17 -85h84zM440 792l-100 -80l-17 -85h83z" />
    <glyph glyph-name="quotedblright" unicode="&#x201d;" horiz-adv-x="413" 
d="M261 712h-84l-33 -165l100 80zM424 712h-84l-33 -165l99 80z" />
    <glyph glyph-name="quotedblbase" unicode="&#x201e;" horiz-adv-x="413" 
d="M136 85h-85l-33 -165l101 80zM299 85h-85l-33 -165l100 80z" />
    <glyph glyph-name="dagger" unicode="&#x2020;" horiz-adv-x="574" 
d="M556 507h-183l41 205h-70l-41 -205h-181l-13 -62h182l-89 -445h70l89 445h183z" />
    <glyph glyph-name="daggerdbl" unicode="&#x2021;" horiz-adv-x="574" 
d="M556 507h-183l41 205h-70l-41 -205h-181l-13 -62h182l-79 -395h-180l-12 -62h180l-42 -207h70l41 207h185l12 62h-185l80 395h183z" />
    <glyph glyph-name="bullet" unicode="&#x2022;" horiz-adv-x="505" 
d="M425 334q0 34 -11.5 62.5t-32 49t-49 32t-62.5 11.5t-62.5 -11.5t-49 -32t-32 -49t-11.5 -62.5t11.5 -62.5t32 -49t49 -32t62.5 -11.5t62.5 11.5t49 32t32 49t11.5 62.5z" />
    <glyph glyph-name="ellipsis" unicode="&#x2026;" horiz-adv-x="721" 
d="M607 92h-88l-19 -92h90zM141 92h-88l-19 -92h89zM374 92h-88l-18 -92h88z" />
    <glyph glyph-name="perthousand" unicode="&#x2030;" horiz-adv-x="1129" 
d="M1066 263q0 30 -10 50t-25.5 32t-35 17.5t-37.5 5.5q-66 0 -102.5 -36t-48.5 -99l-19 -99q-3 -15 -3 -35q0 -30 10 -50t25.5 -32t35 -17.5t37.5 -5.5q66 0 103 36t49 99l18 99q3 15 3 35zM388 614q0 30 -10 50t-25.5 32t-35 17.5t-37.5 5.5q-66 0 -103 -36t-49 -99
l-18 -99q-3 -15 -3 -35q0 -30 10 -50t25.5 -32t35 -17.5t37.5 -5.5q66 0 102.5 36t48.5 99l19 99q3 15 3 35zM737 263q0 30 -10 50t-25.5 32t-35 17.5t-37.5 5.5q-66 0 -102.5 -36t-48.5 -99l-19 -99q-3 -15 -3 -35q0 -30 10 -50t25.5 -32t35 -17.5t37.5 -5.5q66 0 103 36
t49 99l18 99q3 15 3 35zM682 712h-61l-458 -712h60zM334 610q0 -14 -3 -27l-20 -103q-7 -37 -27.5 -61.5t-61.5 -24.5q-35 0 -48 17t-13 43q0 8 0.5 14t2.5 13l19 103q7 37 28 61.5t62 24.5q35 0 48 -17t13 -43zM1012 259q0 -14 -3 -27l-19 -103q-7 -37 -28 -61.5t-62 -24.5
q-35 0 -47.5 17t-12.5 43v14t2 13l20 103q7 37 27.5 61.5t61.5 24.5q35 0 48 -17t13 -43zM683 259q0 -14 -3 -27l-19 -103q-7 -37 -28 -61.5t-62 -24.5q-35 0 -47.5 17t-12.5 43v14t2 13l20 103q7 37 27.5 61.5t61.5 24.5q35 0 48 -17t13 -43z" />
    <glyph glyph-name="guilsinglleft" unicode="&#x2039;" horiz-adv-x="312" 
d="M285 478l-243 -210l161 -211l16 84l-91 121l138 121z" />
    <glyph glyph-name="guilsinglright" unicode="&#x203a;" horiz-adv-x="312" 
d="M279 267l-160 211l-17 -84l92 -121l-138 -121l-19 -95z" />
    <glyph glyph-name="eurocurrency" unicode="&#x20ac;" horiz-adv-x="505" 
d="M425 334q0 34 -11.5 62.5t-32 49t-49 32t-62.5 11.5t-62.5 -11.5t-49 -32t-32 -49t-11.5 -62.5t11.5 -62.5t32 -49t49 -32t62.5 -11.5t62.5 11.5t49 32t32 49t11.5 62.5z" />
    <glyph glyph-name="trademark" unicode="&#x2122;" horiz-adv-x="800" 
d="M838 712h-57l-175 -259l-72 259h-55l-84 -427h55l64 314l56 -205h54l135 201l-62 -310h56zM407 712h-280l-11 -51h114l-75 -376h55l76 376h111z" />
    <glyph glyph-name="minus" unicode="&#x2212;" 
d="M458 303h-396l-13 -64h397z" />
    <glyph glyph-name="fraction" unicode="&#x2215;" horiz-adv-x="179" 
d="M371 712h-60l-459 -712h60z" />
    <glyph glyph-name="fi" unicode="&#xfb01;" horiz-adv-x="537" 
d="M364 714h-53q-22 0 -44 -5.5t-41.5 -20t-35 -39t-22.5 -61.5l-20 -99h-59l-10 -53h59l-87 -436h70l87 436h102l11 53h-102l19 95q8 38 28.5 54t49.5 16h36zM499 489h-70l-98 -489h70zM546 712h-78l-15 -72h79z" />
    <glyph glyph-name="fl" unicode="&#xfb02;" horiz-adv-x="579" 
d="M364 714h-53q-22 0 -44 -5.5t-41.5 -20t-35 -39t-22.5 -61.5l-20 -99h-59l-10 -53h59l-87 -436h70l87 436h102l11 53h-102l19 95q8 38 28.5 54t49.5 16h36zM541 712h-71l-116 -578q-4 -17 -4 -40q0 -27 9.5 -45.5t24.5 -29t33 -15t35 -4.5h51l13 60h-41q-32 0 -43.5 11
t-11.5 30q0 9 1.5 15.5t3.5 17.5z" />
    <glyph glyph-name="Euro" horiz-adv-x="643" 
d="M625 509q0 45 -13 83.5t-38.5 66.5t-63.5 43.5t-89 15.5q-54 0 -104 -21.5t-85 -56.5t-53.5 -78.5t-32.5 -106.5h-64l-9 -47h63l-18 -98h-64l-8 -47h64q-5 -26 -6.5 -44t-1.5 -33q0 -46 16 -82t43.5 -60.5t64 -37t77.5 -12.5q57 0 101.5 18t78 47.5t56 67t34.5 76.5h-74
q-26 -69 -78 -107.5t-112 -38.5q-27 0 -51.5 9t-42.5 25.5t-29 41t-11 55.5q0 34 7 75h208l9 47h-210l19 98h210l9 47h-209q13 55 27.5 86.5t36.5 53.5q32 32 66.5 46t72.5 14q62 0 96.5 -40t34.5 -106h73z" />
    </font>
</defs>
</svg>
